/* XPM */
static char *_01cb88de1824098fb95d840f53fb907C5eKRkiDbNwUQRhD[] = {
/* columns rows colors chars-per-pixel */
"64 64 93 2 ",
"   c #633D05",
".  c #643F08",
"X  c #66410A",
"o  c #6B440C",
"O  c #754B0B",
"+  c #784D0C",
"@  c #7F510D",
"#  c #694510",
"$  c #754E12",
"%  c #714E1B",
"&  c #7C5212",
"*  c #755219",
"=  c #7D571A",
"-  c #7C591F",
";  c #7C5920",
":  c #83540D",
">  c #8A5709",
",  c #8C5A0E",
"<  c #845711",
"1  c #8E5D12",
"2  c #845B1B",
"3  c #905F14",
"4  c #916014",
"5  c #92651D",
"6  c #97691F",
"7  c #835E22",
"8  c #866224",
"9  c #8A6425",
"0  c #86642A",
"q  c #896529",
"w  c #8D6A2E",
"e  c #936721",
"r  c #956922",
"t  c #996C23",
"y  c #936C2B",
"u  c #9D732E",
"i  c #8F6F33",
"p  c #916F33",
"a  c #937236",
"s  c #9A7635",
"d  c #997638",
"f  c #9B7B3E",
"g  c #A57D37",
"h  c #A17E3D",
"j  c #8E734A",
"k  c #967A41",
"l  c #997C43",
"z  c #967A4C",
"x  c #9D8047",
"c  c #9F844B",
"v  c #A48242",
"b  c #AA8644",
"n  c #AE8A46",
"m  c #A1854C",
"M  c #AA854D",
"N  c #A5884E",
"B  c #AD8C4C",
"V  c #B08D4A",
"C  c #A38B56",
"Z  c #AF8F50",
"A  c #A38D58",
"S  c #AF9151",
"D  c #AC945C",
"F  c #B39454",
"G  c #B0985F",
"H  c #B99A59",
"J  c #A9926E",
"K  c #B69D62",
"L  c #BB9F62",
"P  c #BA9D6F",
"I  c #AD997C",
"U  c #BDA163",
"Y  c #C2A666",
"T  c #C3A768",
"R  c #C5A969",
"E  c #C9AD6B",
"W  c #CDB16F",
"Q  c #C1A77E",
"!  c #BDAC91",
"~  c #C7B291",
"^  c #CDC1AF",
"/  c #D6C7AF",
"(  c #CEC3B1",
")  c #DAC9B1",
"_  c #DBD3C6",
"`  c #DED6C9",
"'  c #E0D6C6",
"]  c #E1D7C9",
"[  c #E2D9CC",
"{  c #E7E2D9",
"}  c #ECE6DA",
"|  c #EFE8DD",
" . c #FFFFFF",
/* pixels */
" . . . .} 5 , , , , , , , > M  . . . .) , , , , , , , , > Q  . . . .Q > , , , , , , , , )  . . . .M > > , , , , , , 5 }  . . . .",
" . . . .} 6 , , , , , , , > M  . . . .) , , , , , , 1 , , Q  . . . .Q > , , , , , , , , )  . . . .M > , , , , , , , 6 }  . . . .",
" . . . .} 5 , , , , , , , > M  . . . .) , , , , , , , , > Q  . . . .Q > , , , , , , , , )  . . . .M > , , , , , , , 5 }  . . . .",
" . . . .} 5 , , , , , , , > h  . . . .) , , , , , , , , > Q  . . . .Q > , , , , , , , , )  . . . .M > , , , , , , , e }  . . . .",
" . . . .| 5 , , , > , , , > M  . . . .) , , , , , , > , > Q  . . . .Q > , , , , , > , , )  . . . .M > , , > , > , , 5 |  . . . .",
"] ] ] ] / u 6 t t t 5 5 5 5 M ' ] ] ] ~ 5 5 5 5 6 r t t 5 P ] ] ] ] P 6 t t 6 5 5 5 5 5 ~ ] ] ] ` v 5 5 5 5 t r r t u ) ] ] ] ] ",
"& & & & 2 L Y Y Y K C C C C k & & & & 8 C C C C D Y Y Y Y h & & & & h Y Y Y Y D C C C C q & & & & l C C C A L Y Y Y U 2 & & & & ",
"+ + O O 2 U Y Y Y L A A C A l + + O O 8 C C A C D Y Y Y R h O + + O f R Y Y Y D C A C C 8 O + + + l A A C C L T Y Y H 2 O O + + ",
"+ + + + 2 L T T Y U A A C A l + + + O 8 C C C C G Y Y Y R h O + + O h Y T U T D A C A C 8 + + + + l A C A A U R Y Y Y 2 O + + + ",
"+ + + + 2 L T T T U A A C A l + + + + 8 C A C C G Y Y Y Y h O + + O h R Y T T D A A A C 8 O + + + k A C A A U U Y Y H 2 O + + + ",
"O O O O 2 L T T T U A A A A l + O O O 8 A C C C G Y R Y R h O + + O h R T R T K A A A A 8 O O O + l A A A A U R R T U 2 O O + O ",
"9 9 9 9 w b n b n b f f f f d p p y y s f f f f v n n n V y O + + + y n n n b h f d f f a y y y p d f f f l b b n n b w 9 q 9 9 ",
"A A A A m 1 , , , , , , , > t Y R R R V , , , , , , , , , : + + + + : , , , , , , , , , V T T T Y t , , , , , , , , 1 c A A A A ",
"C C C A c 1 , , , , , , , , t Y U R U Z , , , , , , , , , : + + + + : , , , , , , , , , V T Y T Y t , , , , , , , , 3 c A C C C ",
"C A A A c 1 , , , , , , , , t T U R R V , , , , , , , , , : + + + + : , , , , , , , , , V T T T Y t , , , , , , , , 1 c A C C A ",
"C C C A m 1 , , , , , , , , t Y R U R n , , , , , , , , , @ + + + + : , , , , , , , , , n T T T Y t , , , , , , , , 3 c A C A C ",
"A A A A m 1 , , , , , , , , t R U R R V , , , , , , , , , < + + + + : , , , , 1 , , , , V R U R Y t 1 , , , , , , , 1 m A A A A ",
"w w w w w , , , , , , , , , 4 s d d s y , , , , , , , , , : + + + + : , , , , , , , , , y d d s s 4 , , , , , , , , , w w w w w ",
"O O + O @ , , , , , , , , , : O + O + @ , , , , , , , , , : + + + + : , , , , , , , , , @ O O O + : , , , , , , , , , O O O O O ",
"+ + + + + , , , , , , , , , , + + + + @ , , , , , , , , , < + + + + < , , , , , , , , , @ @ + + + : , , , , , , 1 , , @ @ + O @ ",
"+ + + + @ , , , , , , , , , , O + + + @ , , , , , , , , , : + + + + @ , , , , , , , , , @ + + + + , , , , , , , , , , + O + + + ",
"+ + + + O , , , , , , , , , < @ + + + @ , , , , , , , , , : + + + + : , , , , , , , , , @ + + + + : , , , , , , , , , @ + + + + ",
"+ + + + @ , , , , , , , , , : O + + + @ , , , , , , , , , : + + + + : , , , , , , , , , @ + + + + : , , , , , , , , , + + + + + ",
"+ + + + O , , , , , , , , , < + + + + @ , , , , , , , , , : + + + + : , , , , , , , , , @ + + + + , , , , , , , , , , @ + O + + ",
"+ + + + @ , , , , , , , , , , + + + + @ , , , , , , , , , : + + + + : , , , , , , , , , : O + + O < , 1 , , , , , , , + + + + O ",
"+ + + + + , , , , , , , , , , O + + + @ , , , , , , , , , : + + + + < , , , , , , , , , @ @ + + + , , , , , , , , , , @ + + + + ",
"+ + + + + , , , , , , , , , < + + + + @ , 4 , , , , , , , < + + + + : , , , , , , , , , @ + + + + : , , , , , , , , , + + + + + ",
"+ + + + @ , , , , , , , , , : + + + + @ , , , , , , , , , @ + + + + : , , , , , , , , , @ O + + @ : , , , , , , , , , + + + + + ",
"O + + + @ 1 1 1 1 1 3 3 3 3 < @ + + + @ 4 4 1 1 1 1 1 , 1 < + + + + = 1 1 , 1 1 4 1 4 1 @ + + + + , 1 1 3 3 1 1 1 1 1 @ + + + + ",
"+ + + O = x c c c m H H H H b + + + O 9 H H H H S c c c c w O + + + w c c c c S H H H H q + + + + b H H H H N c c c x = O + + + ",
"+ + + O = C C A A D U U U R S + + + O y Y Y Y Y U A A A A i + + + + i A A A A U Y R Y Y w + + + + S R U R U D A C C c = + + + + ",
"+ + + + = c C C A A R R R R S + + + + w Y Y Y R G A C A A i + + + O i A C C C K Y Y Y Y y O + + + S R R R U A C A C C = O + + + ",
"+ + + + & C C C A A Y Y T T Z + + + O w Y Y Y Y K A C C C i O + + O i A A A A K R U R U y + + + + Z R U Y Y D C C A C = + + + + ",
"O + O O = C A C A D Y T T R Z + O O O y T R R Y K A A C A a O O O O i A A A A K R U R R w O + @ + Z R R Y Y D C A A c = O O O + ",
"2 2 2 2 8 x m c c N H H H H M 2 < < = y H H H H S c c c m a 2 2 2 2 a c c c c S H H H H y = = = = b H H H H N m c c x 8 2 2 2 2 ",
"U U U Y F 4 3 3 1 1 1 1 1 1 r m C C C f 1 1 3 4 1 1 1 1 , g Y U U U g , 1 , 4 1 4 , 4 4 f C N c C y 1 3 1 1 1 1 1 1 5 F U U U U ",
"Y Y Y Y H 3 , , , , , , , , e C C C C l , , , , , , , , , g Y Y Y Y g , , , , , , , , , f A A C C 5 , , , , , , , , 4 H R Y Y Y ",
"Y Y Y R H 4 , , , , , , , , e C C C A f , , , , , , , , , g Y Y Y Y g , , , , , , , , , f A C C C 5 , , , , , , , , 4 H R Y Y R ",
"Y Y Y Y H 4 , , , , , , , , e C A A A f , , , , , , , , , g R U Y R g > , , , , , , , , h A C A C 5 , , , , , , , , 4 H Y Y Y Y ",
"R T T E H 4 , , , , , , , , e A A A A l , , , , , , 1 , , h R R R R g , , 4 , , , , , , x A A A A r , , , , , , , , 4 L R Y Y Y ",
"B B B B v < : : < : @ : @ : 2 k l f l i : : : : : @ : @ : y B B B B y @ @ @ @ : @ : @ : w l k k l 2 @ : : @ @ @ : : , v B B B B ",
"+ + + + O X X . X X X X X . o + + + + o . . X . X X X X X o + + + + o X X X X X X X X X O + + + @ o X X X X X X X X X O + + + + ",
"+ + + + O X X X X X X X X X o + + + + O X X X X X X X X X O O + + + O X X X X X X X X X O + + + + X X X X X X X X X X O + + + + ",
"+ + + + O X X X X X X X X X o + O + + O X X X X X X X X X o @ O + + o X X X X X X X X X o + + + + o X X X X X X X X X O + + + + ",
"+ + + + $ X X X X X X X X X o + + + O O X X X X X X X X o o + + + + o X X X X X X X X X o O O @ + o X X X X X X X X X O + + + + ",
"+ + + + O . . . . X . . . . o + + + + O . . . . . X . .   o + O + + o X X X X X X X X X O + + + + o   X . . . .   X X O + + + + ",
"O o O o $ p a a a a a a a a w o o O o = a a a a a a a a s 7 o O O o 8 a a a a p p a a a & o O o o q a a a a a a a a a + o O o o ",
"X X X X * T W E E W E E W W S X X X . 0 W E W E E E W E W l X X X   f W W E W W E W W E q X X X o S W W W E W E W E Y * X X X o ",
"X X X . * Y E E E E E E E E V o X X . 0 E R E E R E E E E f X X X X f W E E R E E E E E 0 . X X X S W E E E R E E E Y * X X X X ",
"X X X X * Y R E E E E E E E Z o X X . 0 E E E E E E E E W f   X X   f W E E E E E E R E 0 . X X o S W E E E E E E E Y * X X X X ",
"X X X . * Y R E E E R E R W S X X X . q E R E E E E E E E f X X X   d W E E E E E E R E 0 . X X o S W R E E E E E E U * X X X X ",
"X X X X & Y E E E E E E E W S o X X . 0 E E E E E R E E W f   X X X f E E E E E E E E E 0 . X X X S W R E E E R E E Y $ X X X X ",
"X X X . * Y E E E E E E E E Z X X X . 0 E E R E E E E E E f   X X X f W R E E E E R E E 0 . X X o S E E E E W E E E Y * X X X X ",
"X X X X * Y E E E E E E E W S o X X . 0 E E E E E E E E W f X X X   f E E E E E E E E E q . X X X S W E R E R W E E Y * X X X X ",
"X X X . * Y R E R W R E R W S X X X . q E E E E E E R E W f X X X   f W E E E E E E E E 0 . X X X S W E E E E R E E U * X X X X ",
"X X X X * Y E E E E W R W W S o X X . 8 E E E E E E E E E f   X X X f E E E E E R E E E q . X X o S W E E E R W E E Y $ X X X X ",
"X X X X * Y R E R E E E E W Z X X X . 0 E E E E E E E E W f . X X X f W E W E E E E E E 0 X X X o S W E E E E E E E Y * X X X X ",
"# # # # - U E R E R R R R E S # # o # 0 R R E R R R R R E l o # # X f R R R R R R R R E q X # # # S R Y Y E R R E Y U * o o # # ",
"_ ` _ ` ^ 0 - ; = - - - - = z _ ` ` ` ! ; ; ; ; ; ; ; ; = J ` ` _ ` J - - - - - - ; ; ; ! ` ` ` _ z = - ; ; ; ; = = 0 ^ ` _ ` ` ",
" . . . .{ %     X X X   X   j  . . . .( X . . . X X .     I  . . . .I   X   X X X   X   (  . . . .j   X X X . . X X % {  . . . .",
" . . . .{ % X X X X X X X   j  . . . .^ X X X X X X X X   I  . . . .I   X X X X X X X X ^  . . . .j   X X X X X X X % {  . . . .",
" . . . .{ % X X X X X X X   j  . . . .^ X X X X X X X X   I  . . . .I   X X X X X X X X ^  . . . .j   X X X X X X X % {  . . . .",
" . . . .{ % X X X X X X     j  . . . .^ X X X X X X X X   I  . . . .I   X X X X X X X X ^  . . . .j   X X X X X X X % {  . . . .",
" . . . .{ % X X X X X X     j  . . . .^ X X X X X X X X   I  . . . .I   X X X X X X X   ^  . . . .j   X X X X X X . % {  . . . ."
};
