/* XPM */
static char *c22d7deece0346e7b3ad0babf4365e3ciBwxPUp9akTSYJIo[] = {
/* columns rows colors chars-per-pixel */
"130 110 7 1 ",
"  c #8C5A0E",
". c #784D0C",
"X c #66410A",
"o c #C9AD6B",
"O c #C2A667",
"+ c #A38C57",
"@ c white",
/* pixels */
"@@@@@@@@@@                    @@@@@@@@@@                    @@@@@@@@@@                    @@@@@@@@@@                    @@@@@@@@@@",
"@@@@@@@@@@                    @@@@@@@@@@                    @@@@@@@@@@                    @@@@@@@@@@                    @@@@@@@@@@",
"@@@@@@@@@@                    @@@@@@@@@@                    @@@@@@@@@@                    @@@@@@@@@@                    @@@@@@@@@@",
"@@@@@@@@@@                    @@@@@@@@@@                    @@@@@@@@@@                    @@@@@@@@@@                    @@@@@@@@@@",
"@@@@@@@@@@                    @@@@@@@@@@                    @@@@@@@@@@                    @@@@@@@@@@                    @@@@@@@@@@",
"@@@@@@@@@@                    @@@@@@@@@@                    @@@@@@@@@@                    @@@@@@@@@@                    @@@@@@@@@@",
"@@@@@@@@@@                    @@@@@@@@@@                    @@@@@@@@@@                    @@@@@@@@@@                    @@@@@@@@@@",
"@@@@@@@@@@                    @@@@@@@@@@                    @@@@@@@@@@                    @@@@@@@@@@                    @@@@@@@@@@",
"@@@@@@@@@@                    @@@@@@@@@@                    @@@@@@@@@@                    @@@@@@@@@@                    @@@@@@@@@@",
"@@@@@@@@@@                    @@@@@@@@@@                    @@@@@@@@@@                    @@@@@@@@@@                    @@@@@@@@@@",
"..........OOOOOOOOOO++++++++++..........++++++++++OOOOOOOOOO..........OOOOOOOOOO++++++++++..........++++++++++OOOOOOOOOO..........",
"..........OOOOOOOOOO++++++++++..........++++++++++OOOOOOOOOO..........OOOOOOOOOO++++++++++..........++++++++++OOOOOOOOOO..........",
"..........OOOOOOOOOO++++++++++..........++++++++++OOOOOOOOOO..........OOOOOOOOOO++++++++++..........++++++++++OOOOOOOOOO..........",
"..........OOOOOOOOOO++++++++++..........++++++++++OOOOOOOOOO..........OOOOOOOOOO++++++++++..........++++++++++OOOOOOOOOO..........",
"..........OOOOOOOOOO++++++++++..........++++++++++OOOOOOOOOO..........OOOOOOOOOO++++++++++..........++++++++++OOOOOOOOOO..........",
"..........OOOOOOOOOO++++++++++..........++++++++++OOOOOOOOOO..........OOOOOOOOOO++++++++++..........++++++++++OOOOOOOOOO..........",
"..........OOOOOOOOOO++++++++++..........++++++++++OOOOOOOOOO..........OOOOOOOOOO++++++++++..........++++++++++OOOOOOOOOO..........",
"..........OOOOOOOOOO++++++++++..........++++++++++OOOOOOOOOO..........OOOOOOOOOO++++++++++..........++++++++++OOOOOOOOOO..........",
"..........OOOOOOOOOO++++++++++..........++++++++++OOOOOOOOOO..........OOOOOOOOOO++++++++++..........++++++++++OOOOOOOOOO..........",
"..........OOOOOOOOOO++++++++++..........++++++++++OOOOOOOOOO..........OOOOOOOOOO++++++++++..........++++++++++OOOOOOOOOO..........",
"++++++++++                    OOOOOOOOOO                    ..........                    OOOOOOOOOO                    ++++++++++",
"++++++++++                    OOOOOOOOOO                    ..........                    OOOOOOOOOO                    ++++++++++",
"++++++++++                    OOOOOOOOOO                    ..........                    OOOOOOOOOO                    ++++++++++",
"++++++++++                    OOOOOOOOOO                    ..........                    OOOOOOOOOO                    ++++++++++",
"++++++++++                    OOOOOOOOOO                    ..........                    OOOOOOOOOO                    ++++++++++",
"++++++++++                    OOOOOOOOOO                    ..........                    OOOOOOOOOO                    ++++++++++",
"++++++++++                    OOOOOOOOOO                    ..........                    OOOOOOOOOO                    ++++++++++",
"++++++++++                    OOOOOOOOOO                    ..........                    OOOOOOOOOO                    ++++++++++",
"++++++++++                    OOOOOOOOOO                    ..........                    OOOOOOOOOO                    ++++++++++",
"++++++++++                    OOOOOOOOOO                    ..........                    OOOOOOOOOO                    ++++++++++",
"..........                    ..........                    ..........                    ..........                    ..........",
"..........                    ..........                    ..........                    ..........                    ..........",
"..........                    ..........                    ..........                    ..........                    ..........",
"..........                    ..........                    ..........                    ..........                    ..........",
"..........                    ..........                    ..........                    ..........                    ..........",
"..........                    ..........                    ..........                    ..........                    ..........",
"..........                    ..........                    ..........                    ..........                    ..........",
"..........                    ..........                    ..........                    ..........                    ..........",
"..........                    ..........                    ..........                    ..........                    ..........",
"..........                    ..........                    ..........                    ..........                    ..........",
"..........                    ..........                    ..........                    ..........                    ..........",
"..........                    ..........                    ..........                    ..........                    ..........",
"..........                    ..........                    ..........                    ..........                    ..........",
"..........                    ..........                    ..........                    ..........                    ..........",
"..........                    ..........                    ..........                    ..........                    ..........",
"..........                    ..........                    ..........                    ..........                    ..........",
"..........                    ..........                    ..........                    ..........                    ..........",
"..........                    ..........                    ..........                    ..........                    ..........",
"..........                    ..........                    ..........                    ..........                    ..........",
"..........                    ..........                    ..........                    ..........                    ..........",
"..........++++++++++OOOOOOOOOO..........OOOOOOOOOO++++++++++..........++++++++++OOOOOOOOOO..........OOOOOOOOOO++++++++++..........",
"..........++++++++++OOOOOOOOOO..........OOOOOOOOOO++++++++++..........++++++++++OOOOOOOOOO..........OOOOOOOOOO++++++++++..........",
"..........++++++++++OOOOOOOOOO..........OOOOOOOOOO++++++++++..........++++++++++OOOOOOOOOO..........OOOOOOOOOO++++++++++..........",
"..........++++++++++OOOOOOOOOO..........OOOOOOOOOO++++++++++..........++++++++++OOOOOOOOOO..........OOOOOOOOOO++++++++++..........",
"..........++++++++++OOOOOOOOOO..........OOOOOOOOOO++++++++++..........++++++++++OOOOOOOOOO..........OOOOOOOOOO++++++++++..........",
"..........++++++++++OOOOOOOOOO..........OOOOOOOOOO++++++++++..........++++++++++OOOOOOOOOO..........OOOOOOOOOO++++++++++..........",
"..........++++++++++OOOOOOOOOO..........OOOOOOOOOO++++++++++..........++++++++++OOOOOOOOOO..........OOOOOOOOOO++++++++++..........",
"..........++++++++++OOOOOOOOOO..........OOOOOOOOOO++++++++++..........++++++++++OOOOOOOOOO..........OOOOOOOOOO++++++++++..........",
"..........++++++++++OOOOOOOOOO..........OOOOOOOOOO++++++++++..........++++++++++OOOOOOOOOO..........OOOOOOOOOO++++++++++..........",
"..........++++++++++OOOOOOOOOO..........OOOOOOOOOO++++++++++..........++++++++++OOOOOOOOOO..........OOOOOOOOOO++++++++++..........",
"OOOOOOOOOO                    ++++++++++                    OOOOOOOOOO                    ++++++++++                    OOOOOOOOOO",
"OOOOOOOOOO                    ++++++++++                    OOOOOOOOOO                    ++++++++++                    OOOOOOOOOO",
"OOOOOOOOOO                    ++++++++++                    OOOOOOOOOO                    ++++++++++                    OOOOOOOOOO",
"OOOOOOOOOO                    ++++++++++                    OOOOOOOOOO                    ++++++++++                    OOOOOOOOOO",
"OOOOOOOOOO                    ++++++++++                    OOOOOOOOOO                    ++++++++++                    OOOOOOOOOO",
"OOOOOOOOOO                    ++++++++++                    OOOOOOOOOO                    ++++++++++                    OOOOOOOOOO",
"OOOOOOOOOO                    ++++++++++                    OOOOOOOOOO                    ++++++++++                    OOOOOOOOOO",
"OOOOOOOOOO                    ++++++++++                    OOOOOOOOOO                    ++++++++++                    OOOOOOOOOO",
"OOOOOOOOOO                    ++++++++++                    OOOOOOOOOO                    ++++++++++                    OOOOOOOOOO",
"OOOOOOOOOO                    ++++++++++                    OOOOOOOOOO                    ++++++++++                    OOOOOOOOOO",
"..........XXXXXXXXXXXXXXXXXXXX..........XXXXXXXXXXXXXXXXXXXX..........XXXXXXXXXXXXXXXXXXXX..........XXXXXXXXXXXXXXXXXXXX..........",
"..........XXXXXXXXXXXXXXXXXXXX..........XXXXXXXXXXXXXXXXXXXX..........XXXXXXXXXXXXXXXXXXXX..........XXXXXXXXXXXXXXXXXXXX..........",
"..........XXXXXXXXXXXXXXXXXXXX..........XXXXXXXXXXXXXXXXXXXX..........XXXXXXXXXXXXXXXXXXXX..........XXXXXXXXXXXXXXXXXXXX..........",
"..........XXXXXXXXXXXXXXXXXXXX..........XXXXXXXXXXXXXXXXXXXX..........XXXXXXXXXXXXXXXXXXXX..........XXXXXXXXXXXXXXXXXXXX..........",
"..........XXXXXXXXXXXXXXXXXXXX..........XXXXXXXXXXXXXXXXXXXX..........XXXXXXXXXXXXXXXXXXXX..........XXXXXXXXXXXXXXXXXXXX..........",
"..........XXXXXXXXXXXXXXXXXXXX..........XXXXXXXXXXXXXXXXXXXX..........XXXXXXXXXXXXXXXXXXXX..........XXXXXXXXXXXXXXXXXXXX..........",
"..........XXXXXXXXXXXXXXXXXXXX..........XXXXXXXXXXXXXXXXXXXX..........XXXXXXXXXXXXXXXXXXXX..........XXXXXXXXXXXXXXXXXXXX..........",
"..........XXXXXXXXXXXXXXXXXXXX..........XXXXXXXXXXXXXXXXXXXX..........XXXXXXXXXXXXXXXXXXXX..........XXXXXXXXXXXXXXXXXXXX..........",
"..........XXXXXXXXXXXXXXXXXXXX..........XXXXXXXXXXXXXXXXXXXX..........XXXXXXXXXXXXXXXXXXXX..........XXXXXXXXXXXXXXXXXXXX..........",
"..........XXXXXXXXXXXXXXXXXXXX..........XXXXXXXXXXXXXXXXXXXX..........XXXXXXXXXXXXXXXXXXXX..........XXXXXXXXXXXXXXXXXXXX..........",
"XXXXXXXXXXooooooooooooooooooooXXXXXXXXXXooooooooooooooooooooXXXXXXXXXXooooooooooooooooooooXXXXXXXXXXooooooooooooooooooooXXXXXXXXXX",
"XXXXXXXXXXooooooooooooooooooooXXXXXXXXXXooooooooooooooooooooXXXXXXXXXXooooooooooooooooooooXXXXXXXXXXooooooooooooooooooooXXXXXXXXXX",
"XXXXXXXXXXooooooooooooooooooooXXXXXXXXXXooooooooooooooooooooXXXXXXXXXXooooooooooooooooooooXXXXXXXXXXooooooooooooooooooooXXXXXXXXXX",
"XXXXXXXXXXooooooooooooooooooooXXXXXXXXXXooooooooooooooooooooXXXXXXXXXXooooooooooooooooooooXXXXXXXXXXooooooooooooooooooooXXXXXXXXXX",
"XXXXXXXXXXooooooooooooooooooooXXXXXXXXXXooooooooooooooooooooXXXXXXXXXXooooooooooooooooooooXXXXXXXXXXooooooooooooooooooooXXXXXXXXXX",
"XXXXXXXXXXooooooooooooooooooooXXXXXXXXXXooooooooooooooooooooXXXXXXXXXXooooooooooooooooooooXXXXXXXXXXooooooooooooooooooooXXXXXXXXXX",
"XXXXXXXXXXooooooooooooooooooooXXXXXXXXXXooooooooooooooooooooXXXXXXXXXXooooooooooooooooooooXXXXXXXXXXooooooooooooooooooooXXXXXXXXXX",
"XXXXXXXXXXooooooooooooooooooooXXXXXXXXXXooooooooooooooooooooXXXXXXXXXXooooooooooooooooooooXXXXXXXXXXooooooooooooooooooooXXXXXXXXXX",
"XXXXXXXXXXooooooooooooooooooooXXXXXXXXXXooooooooooooooooooooXXXXXXXXXXooooooooooooooooooooXXXXXXXXXXooooooooooooooooooooXXXXXXXXXX",
"XXXXXXXXXXooooooooooooooooooooXXXXXXXXXXooooooooooooooooooooXXXXXXXXXXooooooooooooooooooooXXXXXXXXXXooooooooooooooooooooXXXXXXXXXX",
"XXXXXXXXXXooooooooooooooooooooXXXXXXXXXXooooooooooooooooooooXXXXXXXXXXooooooooooooooooooooXXXXXXXXXXooooooooooooooooooooXXXXXXXXXX",
"XXXXXXXXXXooooooooooooooooooooXXXXXXXXXXooooooooooooooooooooXXXXXXXXXXooooooooooooooooooooXXXXXXXXXXooooooooooooooooooooXXXXXXXXXX",
"XXXXXXXXXXooooooooooooooooooooXXXXXXXXXXooooooooooooooooooooXXXXXXXXXXooooooooooooooooooooXXXXXXXXXXooooooooooooooooooooXXXXXXXXXX",
"XXXXXXXXXXooooooooooooooooooooXXXXXXXXXXooooooooooooooooooooXXXXXXXXXXooooooooooooooooooooXXXXXXXXXXooooooooooooooooooooXXXXXXXXXX",
"XXXXXXXXXXooooooooooooooooooooXXXXXXXXXXooooooooooooooooooooXXXXXXXXXXooooooooooooooooooooXXXXXXXXXXooooooooooooooooooooXXXXXXXXXX",
"XXXXXXXXXXooooooooooooooooooooXXXXXXXXXXooooooooooooooooooooXXXXXXXXXXooooooooooooooooooooXXXXXXXXXXooooooooooooooooooooXXXXXXXXXX",
"XXXXXXXXXXooooooooooooooooooooXXXXXXXXXXooooooooooooooooooooXXXXXXXXXXooooooooooooooooooooXXXXXXXXXXooooooooooooooooooooXXXXXXXXXX",
"XXXXXXXXXXooooooooooooooooooooXXXXXXXXXXooooooooooooooooooooXXXXXXXXXXooooooooooooooooooooXXXXXXXXXXooooooooooooooooooooXXXXXXXXXX",
"XXXXXXXXXXooooooooooooooooooooXXXXXXXXXXooooooooooooooooooooXXXXXXXXXXooooooooooooooooooooXXXXXXXXXXooooooooooooooooooooXXXXXXXXXX",
"XXXXXXXXXXooooooooooooooooooooXXXXXXXXXXooooooooooooooooooooXXXXXXXXXXooooooooooooooooooooXXXXXXXXXXooooooooooooooooooooXXXXXXXXXX",
"@@@@@@@@@@XXXXXXXXXXXXXXXXXXXX@@@@@@@@@@XXXXXXXXXXXXXXXXXXXX@@@@@@@@@@XXXXXXXXXXXXXXXXXXXX@@@@@@@@@@XXXXXXXXXXXXXXXXXXXX@@@@@@@@@@",
"@@@@@@@@@@XXXXXXXXXXXXXXXXXXXX@@@@@@@@@@XXXXXXXXXXXXXXXXXXXX@@@@@@@@@@XXXXXXXXXXXXXXXXXXXX@@@@@@@@@@XXXXXXXXXXXXXXXXXXXX@@@@@@@@@@",
"@@@@@@@@@@XXXXXXXXXXXXXXXXXXXX@@@@@@@@@@XXXXXXXXXXXXXXXXXXXX@@@@@@@@@@XXXXXXXXXXXXXXXXXXXX@@@@@@@@@@XXXXXXXXXXXXXXXXXXXX@@@@@@@@@@",
"@@@@@@@@@@XXXXXXXXXXXXXXXXXXXX@@@@@@@@@@XXXXXXXXXXXXXXXXXXXX@@@@@@@@@@XXXXXXXXXXXXXXXXXXXX@@@@@@@@@@XXXXXXXXXXXXXXXXXXXX@@@@@@@@@@",
"@@@@@@@@@@XXXXXXXXXXXXXXXXXXXX@@@@@@@@@@XXXXXXXXXXXXXXXXXXXX@@@@@@@@@@XXXXXXXXXXXXXXXXXXXX@@@@@@@@@@XXXXXXXXXXXXXXXXXXXX@@@@@@@@@@",
"@@@@@@@@@@XXXXXXXXXXXXXXXXXXXX@@@@@@@@@@XXXXXXXXXXXXXXXXXXXX@@@@@@@@@@XXXXXXXXXXXXXXXXXXXX@@@@@@@@@@XXXXXXXXXXXXXXXXXXXX@@@@@@@@@@",
"@@@@@@@@@@XXXXXXXXXXXXXXXXXXXX@@@@@@@@@@XXXXXXXXXXXXXXXXXXXX@@@@@@@@@@XXXXXXXXXXXXXXXXXXXX@@@@@@@@@@XXXXXXXXXXXXXXXXXXXX@@@@@@@@@@",
"@@@@@@@@@@XXXXXXXXXXXXXXXXXXXX@@@@@@@@@@XXXXXXXXXXXXXXXXXXXX@@@@@@@@@@XXXXXXXXXXXXXXXXXXXX@@@@@@@@@@XXXXXXXXXXXXXXXXXXXX@@@@@@@@@@",
"@@@@@@@@@@XXXXXXXXXXXXXXXXXXXX@@@@@@@@@@XXXXXXXXXXXXXXXXXXXX@@@@@@@@@@XXXXXXXXXXXXXXXXXXXX@@@@@@@@@@XXXXXXXXXXXXXXXXXXXX@@@@@@@@@@",
"@@@@@@@@@@XXXXXXXXXXXXXXXXXXXX@@@@@@@@@@XXXXXXXXXXXXXXXXXXXX@@@@@@@@@@XXXXXXXXXXXXXXXXXXXX@@@@@@@@@@XXXXXXXXXXXXXXXXXXXX@@@@@@@@@@"
};
