/* XPM */
static char *f49b40640d8d448ac665a9a820bbb6ef7cyOO4GWKDvzGPuN[] = {
/* columns rows colors chars-per-pixel */
"64 64 199 2 ",
"   c #E9B356",
".  c #E6B054",
"X  c #CF9E49",
"o  c #CB9B47",
"O  c #CA9A46",
"+  c #CFA04E",
"@  c #EAC27E",
"#  c #EEC580",
"$  c #EAB55C",
"%  c #CE9E49",
"&  c #EAB55B",
"*  c #E9B355",
"=  c #E5B054",
"-  c #E6B154",
";  c #E6B155",
":  c #E5B053",
">  c #CB963B",
",  c #C79339",
"<  c #CA9A45",
"1  c #EAB65C",
"2  c #EEC786",
"3  c #EEC785",
"4  c #E2AE53",
"5  c #CE9D49",
"6  c #CB9B48",
"7  c #CE9F4D",
"8  c #D3A555",
"9  c #EAC37F",
"0  c #E8B255",
"q  c #E6B053",
"w  c #E2AD51",
"e  c #D1A04A",
"r  c #CE9D48",
"t  c #EEC581",
"y  c #EAB760",
"u  c #E9B55B",
"i  c #E9B357",
"p  c #E3AE53",
"a  c #E3AD52",
"s  c #E2AC50",
"d  c #CB963D",
"f  c #C8943B",
"g  c #CB9A45",
"h  c #CB9C48",
"j  c #EAC27F",
"k  c #EDC580",
"l  c #EDC57F",
"z  c #CB9B46",
"x  c #E6BD77",
"c  c #EBC37F",
"v  c #E5AF52",
"b  c #CE993E",
"n  c #EDC37B",
"m  c #CB963C",
"M  c #CB9944",
"N  c #CA9945",
"B  c #EAB861",
"V  c #E5AF53",
"C  c #E3AD51",
"Z  c #E3AF54",
"A  c #D2A24F",
"S  c #D3A454",
"D  c #EAC07A",
"F  c #EDC27B",
"G  c #E7B359",
"H  c #E2AE52",
"J  c #C7943B",
"K  c #CC9C48",
"L  c #D3A554",
"P  c #EAC17A",
"I  c #E2AD52",
"U  c #CE9D47",
"Y  c #CA9944",
"T  c #C8943C",
"R  c #CE9E4B",
"E  c #ECC27A",
"W  c #E6B259",
"Q  c #CB9A46",
"!  c #EAB761",
"~  c #D19F49",
"^  c #D1A24E",
"/  c #E7BE78",
"(  c #E7B35A",
")  c #D2A14B",
"_  c #CB953B",
"`  c #E6BD78",
"'  c #CE9C47",
"]  c #CA9943",
"[  c #CE9E4C",
"{  c #EBB861",
"}  c #EDC37A",
"|  c #E3AE52",
" . c #D2A555",
".. c #C7933A",
"X. c #CB9740",
"o. c #CB9842",
"O. c #C8943A",
"+. c #CE9A43",
"@. c #E6BD76",
"#. c #CF993E",
"$. c #E6BC76",
"%. c #CE9F4C",
"&. c #EAB457",
"*. c #CB973D",
"=. c #C79238",
"-. c #CB9840",
";. c #E6BC75",
":. c #CE9A42",
">. c #CF9D49",
",. c #EAC27D",
"<. c #EBC380",
"1. c #D2A454",
"2. c #E1AC4F",
"3. c #CC9943",
"4. c #EAC17D",
"5. c #EEC784",
"6. c #CE9B43",
"7. c #E6BC74",
"8. c #CE9C46",
"9. c #E6B359",
"0. c #EEC684",
"q. c #E9B457",
"w. c #CF993F",
"e. c #CA953B",
"r. c #CA9843",
"t. c #CC9942",
"y. c #E9B255",
"u. c #E3AE54",
"i. c #EEC886",
"p. c #C79239",
"a. c #CFA04D",
"s. c #CB973F",
"d. c #E5BB74",
"f. c #CFA04F",
"g. c #EFC886",
"h. c #CF9D48",
"j. c #EAC079",
"k. c #EAB75F",
"l. c #E1AC50",
"z. c #CA963C",
"x. c #CA953A",
"c. c #CB9841",
"v. c #C79237",
"b. c #E9C17D",
"n. c #D09E48",
"m. c #E9C078",
"M. c #D2A04B",
"N. c #C8933A",
"B. c #E7BE79",
"V. c #C8953C",
"C. c #D2A04A",
"Z. c #E9C17C",
"A. c #CD9C47",
"S. c #EDC47F",
"D. c #CF9F4D",
"F. c #CE9E48",
"G. c #CF9C44",
"H. c #E9BF77",
"J. c #E6B157",
"K. c #E6B258",
"L. c #E1AB4F",
"P. c #D2A350",
"I. c #E6B257",
"U. c #CF9A3F",
"Y. c #CB9942",
"T. c #E6B158",
"R. c #CB973E",
"E. c #C69137",
"W. c #D2A455",
"Q. c #E6B156",
"!. c #E9B55A",
"~. c #E7BD77",
"^. c #E2AC4F",
"/. c #EAB356",
"(. c #C89339",
"). c #E6BE78",
"_. c #D2A250",
"`. c #CD9C46",
"'. c #D1A24F",
"]. c #EAC078",
"[. c #CF9B44",
"{. c #E6B35A",
"}. c #CF9F4C",
"|. c #EAC17B",
" X c #D1A049",
".X c #E6BB74",
"XX c #CC9841",
"oX c #D09E49",
"OX c #EEC681",
"+X c #D2A34F",
"@X c #E9B45A",
"#X c #E2AD50",
"$X c #EDC37C",
"%X c #CF9B43",
"&X c #EDC480",
"*X c #EBC27E",
"=X c #D2A453",
"-X c #E9C079",
";X c white",
/* pixels */
"      . X o O + @ # $     . % o o + @ # & *   = X o o o o % - - X o o o o o o % ; : > , < + @ # 1 = X o o o o o O + @ 2 3 3 3 3 ",
"= = . 4 5 6 7 8 9 # $ 0 q w e r o + @ t y u i = X o o o r e p p 5 o o o 5 X % e a s d f < + @ # 1 = X o g g o h 7 8 j 3 k l k k ",
"X X X 5 z 7 x c 3 k 1 v b b a p r + @ 3 t n & . X o o r p p e r o o o r p ; ; a b m M g O + @ # 1 . X < f f N 7 x c 3 t B & 1 1 ",
"o o o 6 7 8 c 3 # n & V b b C Z A S D # # F G H 5 o r e p p r o o o r e C V : s m J g K 7 L P n G I U Y f T R 8 c 3 t E W = = = ",
"o o Q 7 x c 3 # ! u i   q C ~ ^ / P y & 1 ( ) r o 5 p p e r o o o r p a b > _ m M g O 7 ` P y W ) ' f f ] [ x c 3 t { G ) % X X ",
"o h 7 8 c 3 # } u *     q | ^  .c # & 0 q w r o o X - - % o o o r e a s m ..X.o.z K 7 L P n & : U ] , O.R 8 c 3 t E G I r o o o ",
"O 7 x c 3 # ! u i     q b +.@.c 3 k 1 V #.d g o o % - - X o o r p a b m ] R $.@.%.7 ` P y & &.V *., =.-.;.c 3 t { G ) r o o o o ",
"+ 8 c 3 # } u *     q s :.>.,.3 # n & v d T %.+ % e p p 5 o r e a s m T [ 8 <.<.L 1.P n & 0 q 2._ =., 3.4.3 t E G I r o o o o o ",
"@ j 5.# y u i     : b 6.7.@ 3 t y & &.. 8.R ` D 9.p e r o r p a b m ] [ x c 0.0.9 D y & q.: w.e.=., r.%.@ t { G ) r o o o o o o ",
"3 3 3 l & *       V m t.4.3 t } & y.- u.A S P n ( H r o r e a s m T [ 8 c i.3 5.t n & *   v > p.X.3.%.L P F G I r o o o o h a.+ ",
"3 3 2 k $         . 8.%.@ t y & &.; e A / P y W ) r o r p a b m Y %.x c 0.3 2 # ! u i     V _ s.d.4.@ P y G ) r o o o o Q 7 x @ ",
"l l k n &       q I ^ 8 9 # & 0 q w r + @ # & = % o r e a s m J < f.@ g.3 5.# } u *     q s 6.h.j.t # n G I r o o o o h 7 8 c g.",
"$ $ $ & i     q b 6.@.c 3 k 1 V w.d g + @ # 1 = % r p C b m M g O + @ 2 2 # ! u i     q b 6.;.j.k.& 1 9.) r o o o o Q 7 x c 0.3 ",
"            q l.z.t.4.g.3 l 1 v > , < + @ # 1 = % % ; V > , < K 7 8 j 3 # } u *     q 2.x.c.4.t & *   = % o o o o h 7 8 c i.3 3 ",
"          : #.m ] %.,.2 2 k 1 v > ..< + @ # 1 = 5 % ; : > , < + x c 3 # ! u i     q w.e.v.c.b.# $     . X o o o Q 7 x c 0.3 3 3 ",
"    : :   V d T [ 8 j 3 # n & v > ..< + @ # 1 . e e a s d f < + @ 3 # } u *     q 2.e.p.s.n.m.n & * ; H U < o h 7 8 c i.3 5.k l ",
"  : b b q . U [ x c 5.# y u q.v > , Y + @ # $ * ; w b m M g O + @ t ! u i     q w.e.=.X.d.j.k.& i . M.' f f < + x c 0.3 3 k y & ",
"  : b b C p r + @ g.3 l & *   v > N.R 1./ j.u     V > , < K 7 L D n u *     q 2.e.=., 3.4.t & *   = U Y f f < + @ g.3 3 3 l & * ",
"    q C e r o + @ 3 3 l $     v > X.$.B.1.A ;     v > , < + ` P y & i     q w.e.=., r.%.@ # $     V *.f Y Q z + @ 3 3 3 2 k $   ",
"    ; p r o o + @ 3 3 l $     v _ c.4.c A ~ p ;   V *.f < + @ # & *     ; w e.=., V.[ 8 9 # $ 0 q l.m f Q o o + @ 3 3 5.# n &   ",
"  ; C.r o o O + @ 2 2 k $     V _ c.Z.k ( p e e ; . U < O + @ # $     ; M.A.N., ] %.x c 3 k 1 q #.m M Q o o O + @ 3 3 k y u i   ",
". 4 r o o h 7 8 j 3 # n & 0 q l.m t.4.# 1 . 5 5 . . X 6 7 L D n & * ; H ' Y f f < f.@ g.3 S.W 2.m J Q o o h 7 8 j 3 3 l & *     ",
"X 5 o o Q 7 x c 3 # ! u q.: w.m Y D.@ # 1 = % % . . F.7 ` P y & q.; M.' f f Y Q z + @ 2 i.4.G.m M Q o o Q 7 x c 0.3 2 k $       ",
"o o o h 7 8 c 3 # } u *   v > , < f.@ # 1 = % % . . F.+ D n & y.; H ' Y f f Q o o + @ 3 t H.-.p.g o o h 7 8 c i.3 5.# n &       ",
"o o o a.x c 3 # ! u i     v > ..< + @ # 1 . % % . . % % W & i . M.' f f Y Q o o O + @ t { J.m ..g o Q 7 x c 0.3 3 k y u i       ",
"o o o + @ 3 # } u *       v > ..< + @ k ( H r % . . % % =     = U Y f f Q o o h 7 L P F K.L.e., Y z 7 8 c i.3 3 3 l & *     - = ",
"o o O + @ t ! u i         V > , Y + @ c P.r o X . . % % =     V *.f Y Q o o Q 7 ` P y I.U.e.=.=., Y.$.c 0.3 3 3 2 k $     ; C.% ",
"o h 7 L D n u *         q l.d T [ L P j.%.< o X . . % % =     v > , g o o h 7 L P n & v > =....., 3.4.g.3 3 3 5.# n & * ; 4 r o ",
"o a.` P y & i         q #.m Y %.x P y T.R.f < % - - % % =     v > ..g o Q 7 ` P y & &.V > , Y g < D.,.3 3 3 2 # y & q.; C.r o o ",
"z + @ # & *         q l.m J < f.j k K.L.e.N.A.e p p r % =     v > ..< K 7 L P n & 0 q 2._ ..g o o + @ 3 3 5.# } & y.; 4 r o o o ",
"O + @ # $         q w.m Y < O + j ,.G.e.=.> w p e r o % =     v > , Y 7 ` P y & &.q w.e.=...g o O + @ 2 2 # y & q.; C.r o o o o ",
"+ S D n &       q l.m T %.f.+ S P H.-.E.=.m V ; % o r C.-     V *.T R L P n & 0 q 2.e.=., f g K 7 8 j 3 # } & y.; 4 r o o o o o ",
"@ D y & i     q w.m ] [ x @ @ P y J.m =.=.> V . % r 4 ;       = U [ x P y & &.q w.e.=., Y g O 7 x c 3 # y & q.; C.r o o o o o o ",
"# n & y.. = V l.m T [ 8 c 3 t F K.L._ =., *.V . % % .         = F.+ j # & 0 q 2.e.=., f g K 7 8 c 3 # } & y.; 4 r o o o o h a.+ ",
"$ & q.; M.U *.m ] [ x c 3 t B I.U.e.=...Y U . . 5 % .         = r + @ # 1 q w.e.=., Y Q z a.x c 3 # y & q.; C.r o o o o Q 7 x @ ",
"  * ; H ' Y f T [ 8 c 3 9 j.u v > =.=...< X . ; e e w q       ; A 8 9 S.W L.e.=., f Q o o + @ 3 # } & y.; 4 r o o o o h 7 8 c g.",
"  - M.' f f ] [ x c 3 c W.A Q.V m =.=...< % =   ; a b b :   * !.j.c 3 ,.G.e.=., Y g z o O + @ t y & q.; C.r o o o o Q 7 x c 3 2 ",
"  = U Y f T [ 8 c 3 c ~.^ ~ C ^._ =., T A.C.-   q ^.e._ v q.& y P @ 4.d.X.v., f g K a.+ + S D n & y.; 4 r o o o o h 7 8 c 3 j @ ",
"/.V *.f ] %.x c 3 c  .^ Z a b e.=., ] A.I -   q w.e.=.> v & n D S %.3.X.(., Y g O 7 ).j @ D y & q.; C.r o o o o Q 7 x c 3 c 8 + ",
". w d f < f.@ 3 c ~.^ ~ a s e.=., V.%.P.( u . 2.e.=.e.b w ( k j _.`.f p.=...g K 7 1.B.c k n & y.; 4 r o o o o h 7 8 c 3 c ~.'.r ",
"X r Q g O + @ c  .^ Z a b e.=., r.[ ` c # ].[.e.=.e.s a ~ _.j k ( H U Y , ..Y 7 ).B.1.A {.& q.; C.r o o o o Q 7 x c 3 c  .^ u.- ",
"o o o K 7 1.B./ ^ ~ a s e.p.X.3.}.1.~.4.4.d.X.=.e.b a p e A j.n ( H U Y f V.R L |.P A  X.   ; 4 r o o o o h 7 8 c 3 c ~.^ ~ p - ",
"o o o a.).B.1.A Z a b e.v.s..X,.@ x h.c.XXX.p.e.s a ~ e p ; & G ) ' f f ] [ ` P y !.; .   ; C.r o o o o Q 7 x c 3 c  .^ Z p e % ",
"o o o + D j.%.`.w s e.p.s.h.~.c # H.-.E., (.e.b a Z '.A ;   - I ' Y f T [ L P n & *     ; 4 r o o o o h 7 8 c 3 c ~.^ ~ p p r o ",
"o o o % {.K.R.N.e.e.v.X.;./ 1.A ( K.m , ] A.w C ~ './ D u . M.' f f ] [ ` P y & i     ; C.r o o o o Q 7 x c 3 c  .^ Z p e r o o ",
"X X % e C ^.e.p.X.c.c.h./ / '.~ C ^.d f ' e p Z '.1.P n & = U Y f T [ L P n & *     ; 4 r o o o o h 7 8 c 3 c ~.^ ~ p p r o o o ",
". . ; C b e.v.s.d.4.4.x 1.'.Z a b m Y A.4 p ~ ^ / P y & &.V *.f ] %.x P y & i     ; C.r o o o o Q 7 x c 3 9 W.^ Z p e r o o o o ",
". . ; w d ..X.oX@ 3 OXj.A ~ a s m T %.+X; ; A W.c # & 0 q l.m f < f.j # & *     ; 4 r o o o o h 7 8 c 3 t j.A ~ p p r o o o 5 X ",
"X X X r g R ;.,.3 t B !.Q.C b z.] [ ` P !.@Xj.9 3 # 1 q w.m M Q z + @ # $     - C.r o o o o Q 7 x c 3 t B !.; p e r o o o r p - ",
"o o o 6 7 8 c 3 t E W : : #X6.t.%.L P $Xk.y t 3 t E K.L.e., g o o + @ # $     = % o o o o h 7 8 c 3 t E W = . p r o 5 X % e p - ",
"o o Q 7 x c 3 t { G ) U d %X7.4.@ D k.y n # 3 # B I.U.e.=...g o O + @ # $     . X o o o Q 7 x c 3 t { G ) % X 5 o r p - - p e % ",
"o h 7 8 c 3 t E G I ' Y ..t.4.g.i.k 9.9.&X3 # } & v > =., f g K 7 L D n & * ; 4 5 o o h 7 8 c 3 t E G I r o o o r e p - - p r o ",
"O 7 x c 3 t { G ) ' f f r.%.,.2 i.*XA A @ t y & &.V > , Y g O 7 ).|.y & i . C.r o o Q 7 x c 3 t { G ) r o o o r p p e % X 5 o o ",
"+ 8 c 3 t E G I ' Y f T [ 8 j 3 c / =X1.9 # & 0 q l.d f g K 7 1.B.P !.*   = % o o h 7 8 c 3 t E G I r o o o r e p p r o o o o o ",
"@ j 3 t { G ) ' f f ] [ x c 3 c L =X/ c 3 k 1 V #.m M Q z a.).B.1.A ;     . X o Q 7 x c 3 t { G ) r o o o r p p e r o o o o o o ",
"2 3 t E G I ' Y f T [ 8 c 3 c x 7 + @ 3 # n & v *.J Q o o + j c A  X.   ; 4 5 6 7 8 c 3 t E G I r o o o r e p p r o o o o h a.+ ",
"2 # { G ) ' f f ] %.x c 3 9 8 7 o + @ t y u i = U < o o O + @ k {..   - C.r o a.x c 5.# B W ) r o o o r p p e r o o o o o a.x @ ",
"k E G I ' Y f f < f.@ 3 t -Xa.O z + @ # & *   = X o o h 7 L D n &     = % o o + @ g.3 l & = % o o o r e p p r o o o o o o + @ g.",
"1 9.) ' f f Y Q z + @ t B W X o o + @ # $     = X o o a.` P y & i     . X o o + @ 2 2 k 1 . X o o 5 p p e r o o o o o o o + @ 2 ",
"  = U Y f f Q o o + @ # & = X o o + @ # $     = X o o + @ # & *     ; 4 5 o o + @ 3 # E G H 5 o o X - - % o o o o o o o o + @ 2 ",
"  V *.f Y Q o o o + @ # 1 = X o o + @ # $     = X o o + @ # $     - C.r o o o + @ t B W ) r o o o % - - X o o o o o o o O + @ 2 ",
"  V *.f Q o o o o + @ # 1 = X o o + @ # $     = X o o + -Xn &     = % o o o o + @ # & = % o o o r e p p 5 o o o o o o h 7 8 j 3 ",
"  = U < o o o o o + @ # 1 = X o o + @ # $     = X o o X W & i     = X o o o o + @ # 1 = X o o 5 p p e r o o o o o o o a.x c 0.3 ",
"  = X o o o o o o + @ # 1 = X o o + @ # $     = X o o X =         = X o o o o + @ # 1 = X o o X - - % o o o o o o o o + @ g.3 3 "
};
