/* XPM */
static char *_8b7da594955465ea3145bdf19d8ae728JObEQLGmVUguuPA[] = {
/* columns rows colors chars-per-pixel */
"64 64 109 2 ",
"   c None",
".  c black",
"X  c #090503",
"o  c #090504",
"O  c #0A0604",
"+  c #0C0705",
"@  c #0D0805",
"#  c #0F0906",
"$  c #100907",
"%  c #100A07",
"&  c #110A07",
"*  c #120A07",
"=  c #120B07",
"-  c #140C08",
";  c #1E120C",
":  c #1F120D",
">  c #20130D",
",  c #22140E",
"<  c #3C2318",
"1  c #43271B",
"2  c #44281B",
"3  c #45281C",
"4  c #472A1D",
"5  c #4A2B1E",
"6  c #4B2C1E",
"7  c #4C2C1F",
"8  c #4C2D1F",
"9  c #4D2D1F",
"0  c #4E2D1F",
"q  c #4E2E1F",
"w  c #4F2E20",
"e  c #502F20",
"r  c #502F21",
"t  c #512F21",
"y  c #523021",
"u  c #533021",
"i  c #533122",
"p  c #543122",
"a  c #553222",
"s  c #553223",
"d  c #563323",
"f  c #583424",
"g  c #593525",
"h  c #5A3525",
"j  c #5C3625",
"k  c #5C3726",
"l  c #5D3726",
"z  c #5E3726",
"x  c #5F3827",
"c  c #603928",
"v  c #613928",
"b  c #633A29",
"n  c #643B29",
"m  c #653C2A",
"M  c #663C2A",
"N  c #673C2A",
"B  c #673D2A",
"V  c #683D2B",
"C  c #693E2B",
"Z  c #6A3E2C",
"A  c #6A3F2C",
"S  c #6B3F2C",
"D  c #6A402C",
"F  c #6C402C",
"G  c #6D402D",
"H  c #6D412D",
"J  c #71432F",
"K  c #734530",
"L  c #754631",
"P  c #764731",
"I  c #774731",
"U  c #784832",
"Y  c #794832",
"T  c #794932",
"R  c #7D4B34",
"E  c #7F4C35",
"W  c #804C35",
"Q  c #804D35",
"!  c #814D35",
"~  c #824E36",
"^  c #834E36",
"/  c #834F36",
"(  c #844F36",
")  c #844F37",
"_  c #855037",
"`  c #865037",
"'  c #875037",
"]  c #865038",
"[  c #875138",
"{  c #885138",
"}  c #885238",
"|  c #885239",
" . c #895239",
".. c #8A5339",
"X. c #8C543A",
"o. c #8D543A",
"O. c #8D553A",
"+. c #8E553A",
"@. c #8E553B",
"#. c #93583D",
"$. c #94593D",
"%. c #95593D",
"&. c #95593E",
"*. c #955A3E",
"=. c #965A3E",
"-. c #975A3E",
";. c #975B3E",
":. c #975B3F",
">. c #985B3F",
/* pixels */
"                                                                                                                                ",
"                                                                                                                                ",
"                                                                                                                                ",
"                                                                                                                                ",
"                                                                                                                                ",
"                                                                                                                                ",
"                                                                                                                                ",
"                                                                                                                                ",
"                                                . . . . . . . . . . . .                                                         ",
"                                                . . . . . . . . . . . .                                                         ",
"                                                . . . . . . . . . . . .                                                         ",
"                                                o o O O # = # # % % # *                                                         ",
"                                . . . . . . . o < 2 2 6 J U U U U U U D # . . . . . . .                                         ",
"                                . . . . . . . o 2 q q p E ..[ [ ] ' ..U = . . . . . . .                                         ",
"                                . . . . . . . X 2 w 6 i E } } ] ] ] ..U # . . . . . . .                                         ",
"                                o o o o o o X = 6 p p h E } ] } ..' [ T : = = = = = = =                                         ",
"                        . . . o < 2 1 2 2 2 2 7 T _ E E ] } } ] | | { { ) ( ) ( ^ _ ' L = . . .                                 ",
"                        . . . o 2 q q q q 7 q p E } ' ' ] } ] } ' ) { | *.>.>.*.;.;.;._ = . . .                                 ",
"                        . . . o 1 w q q 7 q 7 p E } } ] } ] } ] | ( { | *.*.*.>.*.*.;._ * . . .                                 ",
"                        o o o * 4 e w w q 7 q p E } ] } ] } ] } | | | | +.+.+.@.*.*.;.' , * = *                                 ",
"                . . . o < 1 1 5 z b b b w q 7 p E } } ] } ] ] } &.&.&.+.z s s z @.*.*.*.' _ _ U = . . .                         ",
"                . . . o 2 q 7 e b M M b w q q p E } ] } ] } ] ..*.*.*.+.p 7 w p +.*.>.*.;.;.*.' = . . .                         ",
"                . . . o 2 q 7 e b M M b e w 7 t E ] } ] } ] ] ..#.>.>.+.p 7 7 p +.>.>.*.*.*.*._ = . . .                         ",
"                . . . o 2 q q e b M M M p p e z ^ } ] } ] } ] ..#.*.&.+.c s p z ( +.+.+.$.$.$._ = . . .                         ",
"                . . . o 1 q q e b M M V R ^ E ^ ' ] ] } [ [ [ } #.>.%.&.+.o.o.' h s s h ^ | ..U % . . .                         ",
"                . . . o 1 q 7 e b M m A ^ } ' ' ' ] } ] [ [ [ ..%.%.>.*.>.>.-.o.s 5 w i ^ | ' U % . . .                         ",
"                . . . o 1 w w w M m m A ^ } } } ] } ] } [ [ [ ..%.*.>.*.*.*.-.+.s w q p E ' ] U # . . .                         ",
"                o o o * 4 e w e c b b V E ^ ^ ' } ] } ] [ [ [ [ +.+.o.+.*.%.>.+.z p p h ^ ' ] T : # % %                         ",
"        . . . o < 2 1 4 z b b b e w w p V D V F _ ] ] ] } ] [ E z p p x +.>.%.&.+.+.+.+.] } ] ' T U U D % . . .                 ",
"        . . . o 2 q w e b M M b w q q w b m m S _ ] ] _ ] } ' E i 7 q p +.>.*.*.>.*.*.*...] } ] | | | U % . . .                 ",
"        . . . o 2 q q e b M M b w q q w b m V F _ ' ' _ } ] } E p 7 7 p o.>.>.%.*.*.;.$...] | ' } } } U # . . .                 ",
"        . . . o 2 q 7 e b b b x p w w p b m b V E _ _ _ ] } ] _ h p u j o.%.%.#.$.$.$.$...] ] ' ' } ..J = . . .                 ",
"        . . . o 2 q 7 q e w q i c b b b M M M M m A A H ' ' ] ' ^ E E _ ' ..} ..| | | | } } ] | ' ' | U % . . .                 ",
"        . . . o 2 7 q 7 q q q w b M M M M M M V M M M A ^ | ] | ' ' } ] ' ] ] ] | ] } } ] ' ' | ] | ' U % . . .                 ",
"        . . . o 2 7 7 q q 7 w w b M M M M M m m M M m A _ ' ' ] ' ] ..} } ] } ] | ' ] | | ] | ] ' ' } U % . . .                 ",
"        . . . o 2 q q q e w w e c b b b M M V m A A A D E _ ( ' ] ] ' ] ] } ] } ] ' | ] ( ^ ^ ( ] ' } P % . . .                 ",
"        . . . o 2 w 7 w x b b b u w w u b M M V W ^ ^ ^ F S S H _ } ] } } ] } ] ' ] | ( H A A H ' ] } U # . . .                 ",
"        . . . o 2 7 w w b M M b w q q u M m M V ^ | ' ^ V m m V _ ] } ] ] } ] } | ] ' ^ A M M A _ } ' U = . . .                 ",
"        . . . X 2 q q e M M M b w q q q b m m D ' ] ' _ D m N D _ ' ] ] } ] } ] ] | { ( A M m D _ ] ..U # . . .                 ",
"        . . . X < 2 2 5 z b b b u w w u M m m D T E ^ T m N N V E _ _ _ ] } ] } ) ^ ^ W S A V D K U U D % . . .                 ",
"                o o o * 4 e w e c b c b m N N c p i p d N m N N m D V H ' ] ] _ D A A S ^ ^ ^ L : # % %                         ",
"                . . . o 1 w q e b V N N V N m b u 6 q q c m N V m m m A ^ ' ] _ A m M A ^ | ] U # . . .                         ",
"                . . . o 1 q q e b m V N N N V b q q q w b V m m m m m D _ ' } ^ A M M A ^ ] | L # . . .                         ",
"                . . . o 2 q 7 e b m b V c b b c u u w u c b b b M b b V E ^ ^ W m b M m ^ ( ( K % . . .                         ",
"                . . . o 2 q q e b M M b u q u u c b b c w w w w w w e p m A V V p e w i m A S z # . . .                         ",
"                . . . o 2 7 q w b M M b u q q q c N V b u q q q q q q e M M M b e q q e M M M h O . . .                         ",
"                . . . o 2 q q e b M M b q q q q b N V b w q q q q q q e b M M b e 7 q e b m V h # . . .                         ",
"                . . . o < 2 1 4 z b M c w q q q c b b c u w w w q w w e c b b c e q 7 w f h h e O . . .                         ",
"                        o o o * 4 e e w q 7 q 7 e e e t c b b b b b b c e e e e q 7 q 4 % # o #                                 ",
"                        . . . o 1 q w 7 7 q 7 7 q 7 w e b M N M M M M b e q 7 q 7 q q 2 o . . .                                 ",
"                        . . . o 2 q q q q 7 q e q 7 q w b N N N M M M b e w q q q 7 q 2 o . . .                                 ",
"                        . . . o < 2 2 2 2 2 2 1 7 q q w c b b b b b b z 5 1 2 2 2 2 2 < o . . .                                 ",
"                                o o o o o o o * 2 0 7 q w w w w e w e 5 * o o o X o o o                                         ",
"                                . . . . . . . o 2 0 q 7 q w q 7 w 7 7 1 o . . . . . . .                                         ",
"                                . . . . . . . o 2 w 7 w 7 w 0 0 q q q 1 o . . . . . . .                                         ",
"                                . . . . . . . o < 2 2 2 2 2 2 2 2 2 2 < o . . . . . . .                                         ",
"                                                o o o o o o o o o o o o                                                         ",
"                                                . . . . . . . . . . . .                                                         ",
"                                                . . . . . . . . . . . .                                                         ",
"                                                . . . . . . . . . . . .                                                         ",
"                                                                                                                                ",
"                                                                                                                                ",
"                                                                                                                                ",
"                                                                                                                                "
};
