/* XPM */
static char *_aa5084513434909b0514682d2d6517dWRqzcSsbHdsek5hG[] = {
/* columns rows colors chars-per-pixel */
"64 64 204 2 ",
"   c #040202",
".  c #0A0604",
"X  c #0B0B0B",
"o  c #0D0806",
"O  c #180C07",
"+  c #0B0E10",
"@  c #131313",
"#  c #1D1D1D",
"$  c #29160D",
"%  c #341A0E",
"&  c #3A1E11",
"*  c #361C10",
"=  c #201B1A",
"-  c #3C2215",
";  c #2D211B",
":  c #252728",
">  c #272727",
",  c #353433",
"<  c #3E3E3E",
"1  c #312A27",
"2  c #492817",
"3  c #5B2D17",
"4  c #5E311A",
"5  c #55311E",
"6  c #6B361B",
"7  c #6E391D",
"8  c #67351B",
"9  c #71391C",
"0  c #7D3F1E",
"q  c #492F20",
"w  c #4B362B",
"e  c #443229",
"r  c #583929",
"t  c #4A3C35",
"y  c #6D3C23",
"u  c #653A24",
"i  c #763E21",
"p  c #534139",
"a  c #59443A",
"s  c #48413E",
"d  c #7C4224",
"f  c #76442B",
"g  c #684837",
"h  c #734A35",
"j  c #3D4041",
"k  c #47494A",
"l  c #474747",
"z  c #564C47",
"x  c #555555",
"c  c #5C5956",
"v  c #565859",
"b  c #5C5A5A",
"n  c #5A5654",
"m  c #59504B",
"M  c #6C584E",
"N  c #69574E",
"B  c #765849",
"V  c #685B55",
"C  c #795E51",
"Z  c #766156",
"A  c #5E5F60",
"S  c #646262",
"D  c #6B6663",
"F  c #6E6E6E",
"G  c #6C6967",
"H  c #756E6B",
"J  c #6D6F70",
"K  c #6F7173",
"L  c #747474",
"P  c #7A7A7B",
"I  c #7B7776",
"U  c #77716E",
"Y  c #8E451F",
"T  c #854323",
"R  c #8E4621",
"E  c #8E4925",
"W  c #87492A",
"Q  c #924721",
"!  c #954A23",
"~  c #9A4B24",
"^  c #974E29",
"/  c #96512E",
"(  c #9D522C",
")  c #834E34",
"_  c #8A5438",
"`  c #90583B",
"'  c #A44F24",
"]  c #A45126",
"[  c #AE5426",
"{  c #A2532C",
"}  c #AB572C",
"|  c #B15526",
" . c #B55B2C",
".. c #BC5D2D",
"X. c #B0572B",
"o. c #AC5E36",
"O. c #B65F32",
"+. c #C15E2B",
"@. c #C4612D",
"#. c #C9622E",
"$. c #D4672F",
"%. c #C46332",
"&. c #CA6531",
"*. c #D56932",
"=. c #DA6C33",
"-. c #DE723A",
";. c #E16D32",
":. c #E47136",
">. c #EC7335",
",. c #EA7539",
"<. c #E8773C",
"1. c #F27636",
"2. c #F67837",
"3. c #F27738",
"4. c #F57938",
"5. c #F97B39",
"6. c #F87937",
"7. c #875D47",
"8. c #925D42",
"9. c #82695D",
"0. c #906954",
"q. c #A1684B",
"w. c #867B75",
"e. c #87776E",
"r. c #C97D55",
"t. c #D47847",
"y. c #F27E41",
"u. c #E97F47",
"i. c #8F8179",
"p. c #DC875A",
"a. c #F3864E",
"s. c #F38348",
"d. c #F28A53",
"f. c #F08751",
"g. c #E48C5E",
"h. c #DE9570",
"j. c #D49473",
"k. c #E79062",
"l. c #F29564",
"z. c #F2996A",
"x. c #F39F71",
"c. c #F7A87E",
"v. c #838384",
"b. c #8C8C8C",
"n. c #928A86",
"m. c #949495",
"M. c #9C9C9C",
"N. c #979797",
"B. c #9A918C",
"V. c #A19D9B",
"C. c #A5A19E",
"Z. c #9D9FA0",
"A. c #A3A3A3",
"S. c #A9A5A4",
"D. c #ACACAC",
"F. c #A6A8A8",
"G. c #B3B2B2",
"H. c #BBBDBD",
"J. c #B6B7B8",
"K. c #F2A981",
"L. c #F6B28E",
"P. c #F4B594",
"I. c #F3BA9A",
"U. c #E1A483",
"Y. c #C7B7AE",
"T. c #C0BEBD",
"R. c #E6BDA6",
"E. c #DCC4B7",
"W. c #F4C6AC",
"Q. c #E6C9BA",
"!. c #F5CBB4",
"~. c #F5CDB8",
"^. c #F5D1BD",
"/. c #C4C4C4",
"(. c #CBC7C6",
"). c #C7C8C8",
"_. c #CBCCCC",
"`. c #CDCFD0",
"'. c #CFD1D1",
"]. c #D4D5D5",
"[. c #D7D8D9",
"{. c #DADBDB",
"}. c #F4D8C8",
"|. c #E0DFDE",
" X c #F4E5DC",
".X c #F5E1D6",
"XX c #ECE2DC",
"oX c #DFDFE0",
"OX c #E4E4E4",
"+X c #E7E8E9",
"@X c #EBECEC",
"#X c #ECE7E4",
"$X c #F5E9E2",
"%X c #F4EFEB",
"&X c #F9ECE4",
"*X c #F6F1ED",
"=X c #FAF0EA",
"-X c #EFF2F4",
";X c #F6F6F6",
":X c #FAF6F4",
">X c #F9F8F7",
",X c #F7F7F8",
"<X c #F6F9FA",
"1X c #F9F9F9",
/* pixels */
";X;X;X;X;X;X;X;X;X;X;X;X;X;X;X;X;X;X;X;X;X;X;X;X;X;X;X;X;X;X;X;X;X;X;X;X;X;X;X;X;X;X;X;X;X;X;X;X;X;X:X;X;X;X;X;X;X;X;X;X;X;X;X;X",
";X;X;X;X;X;X;X;X;X;X;X;X;X;X;X;X;X;X;X;X;X;X;X;X;X;X;X;X;X;X;X;X;X;X;X;X;X;X;X;X;X;X;X;X,X;X;X;X;X;X;X;X;X;X;X;X;X;X;X;X;X;X;X;X",
";X;X;X;X;X;X;X;X;X;X;X;X;X;X;X>X;X;X;X;X;X;X;X;X;X;X;X;X;X;X;X;X;X;X;X;X;X;X;X;X;X;X;X,X;X;X;X;X;X;X;X;X;X;X<X;X;X;X;X;X;X;X;X;X",
";X;X;X;X;X;X;X;X;X,X;X;X;X;X;X;X,X;X;X;X;X:X;X;X;X;X;X;X;X;X;X;X;X;X;X;X;X;X;X;X;X;X;X;X;X;X;X;X;X;X;X;X;X;X;X;X;X;X;X;X;X;X;X;X",
";X;X;X;X;X;X;X;X;X;X;X;X;X;X;X;X;X;X;X;X;X;X;X;X;X;X:X;X,X<X,X;X;X;X;X;X;X;X;X;X;X;X;X;X;X;X;X;X;X;X;X;X;X;X;X;X;X;X;X;X;X;X;X;X",
";X;X;X;X;X;X;X;X;X;X;X;X;X;X;X;X;X;X;X;X;X;X;X;X;X;X,X1X{.Z.(.:X;X;X;X;X;X,X;X;X;X;X;X;X;X;X;X;X;X;X;X;X;X;X;X;X;X;X;X;X;X;X;X;X",
";X;X;X;X;X;X;X;X;X;X;X;X;X;X;X;X;X;X;X;X;X;X;X;X;X;X;X<XD.  F >X;X;X;X:X;X;X;X;X;X;X;X;X;X;X;X;X;X;X;X;X;X;X;X;X;X:X;X;X;X;X;X;X",
";X;X;X;X;X;X;X;X;X;X;X;X;X;X;X;X;X;X,X;X;X;X;X;X;X<X].A C 8 F <X;X;X;X;X;X;X;X;X;X;X;X;X;X;X;X;X;X;X;X;X;X;X;X;X;X;X;X;X;X;X,X;X",
";X;X;X;X;X;X;X;X;X;X;X;X;X;X;X;X;X;X;X;X;X;X;X;X;X-XD.@ f ~ J ,X;X;X;X;X:X;X;X;X;X;X;X;X;X;X;X;X;X;X;X;X;X;X;X;X;X;X;X;X;X;X;X;X",
";X;X;X;X;X;X;X;X;X;X;X;X;X,X;X;X;X;X;X;X;X;X;X;X<X[.: j E.! J 1X;X;X;X;X;X;X;X;X;X;X;X;X;X;X;X;X;X;X;X;X;X;X;X;X;X;X;X;X;X;X;X;X",
";X;X;X;X;X;X;X;X;X;X;X;X;X;X;X;X;X;X;X;X;X;X;X,X@XB.g i.c...C /.<X;X;X;X;X;X;X;X;X;X;X;X;X;X;X;X;X;X;X<X;X;X;X;X;X;X;X;X;X;X;X;X",
";X;X;X;X;X;X;X;X;X;X;X;X;X;X;X;X;X;X;X;X;X;X;X;X].w p.^.4.6.Y I <X;X;X;X;X;X;X;X;X;X;X;X;X;X;X;X;X;X;X;X;X;X;X;X;X;X;X;X;X;X<X;X",
";X;X;X;X;X;X;X;X;X;X;X;X1X;X;X;X;X;X;X;X;X;X:X+XH ^ B XX}.L.Q P <X:X;X;X;X;X;X;X;X;X;X;X;X;X<X;X:X;X;X;X;X;X;X;X;X;X;X;X;X;X;X;X",
";X>X;X;X;X;X;X;X;X;X-X].{.;X;X;X;X:X;X;X;X;X;X(.g ( D @X1X!.Q P <X;X;X;X;X;X;X;X;X;X;X;X;X;X;X;X;X;X;X;X;X;X;X;X;X;X;X;X;X;X;X;X",
";X;X;X;X;X;X;X;X;X,X[.: x -X1X1X;X;X;X;X;X;X+Xz { a {.:X,X!.Y P 1X:X:X;X;X;X;X;X;X;X;X;X;X;X;X;X;X;X;X;X;X;X;X;X;X;X;X;X;X;X;X;X",
";X;X;X;X;X;X;X;X>X+Xn.u h v.i.J.,X;X;X;X,X,X+Xt [ p OX:X XI.0.< /.<X;X,X,X;X;X;X;X;X;X;X;X;X;X;X;X;X;X;X;X;X;X;X;X;X;X;X;X;X;X;X",
";X;X;X;X;X;X;X;X>X{.e ;....   G ;X;X>X;X;X@XoXp [ a OX,X~.c.N.  v.*X-X-X-X;X;X:X;X;X;X;X;X;X;X;X;X;X;X;X;X;X;X;X;X;X;X;X;X;X;X;X",
";X;X;X;X;X;X;X;X;X{.w ;.| 2 O.` l A.1X;Xv.l z o.;.o.H -X~.a.8.  : k l k x ].<X,X;X;X;X;X;X;X;X;X;X;X;X;X;X;X;X;X;X;X;X;X;X;X:X;X",
";X;X;X;X;X;X;X;X>X{.w :.r.h %.E % w.).).N % 2 $.6.$.g (.I.4.R O % % % * - C.].-X;X;X;X;X;X;X;X;X;X;X;X;X;X;X;X;X;X;X;X;X;X;X;X;X",
";X;X;X;X;X;X;X;X>X{.w p.$XF.X 6 ,.d + @ { ,.:.,.1.1.X.r y.4.E 9 <.:.:.:.=.- : |.,X;X;X;X;X;X;X;X;X;X;X;X;X<X;X;X;X;X;X;X;X;X;X;X",
";X;X;X;X;X;X;X;X>X{.w t.W.].v.H  . .i i &.2.1.1.1.2.*.] 1.&.d d ..6.1.1.>.E f b.@X,X:X;X;X;X;X;X;X;X;X;X;X;X;X;X;X;X;X;X;X;X;X;X",
";X;X;X;X;X;X,X;X;X{.p $.l.:X1XN.9 5.5.3.3.1.1.1.1.1.1.2.2.! 9 T 0 4.1.1.1.6.;.r [.-X;X;X;X;X;X;X;X;X;X;X;X;X;X;X;X;X;X;X;X;X;X;X",
";X;X;X;X;X;X;X;X;X;XG.f k.=X1XN.9 2.1.1.1.1.1.1.1.1.1.1.2.! 7 T 0 4.1.1.1.1.>.O.s F -X:X;X;X;X;X;X;X;X;X;X;X;X;X;X;X;X;X;X;X;X;X",
";X;X;X;X;X;X;X;X>X>X_.e U.:X1XN.9 2.1.1.1.1.1.1.1.1.1.1.2.X.i d ^ 1.1.1.1.1.1.$.2 a ).;X;X;X;X;X;X;X;X;X;X;X;X;X;X;X;X;X;X;X;X;X",
";X;X;X;X;X;X;X;X;X1X_.k #X;X1XN.6 2.1.1.1.1.1.1.1.1.1.1.1.1.E i 1.1.1.1.1.1.1.>.>. .n ;X;X;X;X;X;X;X;X;X;X;X;X;X;X;X;X;X;X;X;X;X",
",X;X;X;X;X;X;X;X;X1X_.p R.:X_.9...2.1.1.1.1.1.1.1.1.>.1.1.2.R * ..6.1.1.1.1.1.1.1.=._ F.;X;X;X;X;X;X;X:X;X;X;X;X;X;X;X;X;X;X;X;X",
";X;X;X;X;X;X;X;X;X1X'.q g.=XF.i 1.1.1.1.1.1.1.1.1.1.3.1.1.2.^ @ W >.1.1.1.1.1.1.1.2.| c *X;X;X;X;X;X,X,X;X,X;X;X<X;X;X;X;X;X;X;X",
";X;X;X;X;X;X;X;X;X1X_.q ,.L.Q.=.1.1.1.1.1.1.1.1.1.1.1.1.1.2.=.j.I ] 6.1.1.1.4.4.1.2.[ c ;X;X;X;X;X;X,X,X1X1X;X:X;X;X;X;X;X;X;X;X",
";X;X;X;X;X;X;X;X;X1X{.N O.l.P.1.1.1.1.1.1.1.1.1.1.1.1.1.1.1.s.!.P Y 4.1.1.>.O. .>.1.@.M _.;X;X;X;X;X;X;X1X1X<X:X;X;X;X;X;X;X;X;X",
">X;X;X;X;X;X;X;X;X;X,X/.r >.3.1.1.1.1.1.1.1.1.1.1.1.1.1.1.1.K.>XP Q 4.1.6.:.$ $ =.1.1.] S ;X,X;X;X;X;X;X;X;X,X,X;X;X;X;X;X;X;X;X",
";X;X;X;X;X;X;X;X;X;X1X).; Q 1.1.1.1.1.1.1.1.1.1.1.1.1.6.#.q.}.1XP Y 4.>.^ 7 W ( >.1.2.' S ,X;X;X;X;X;X;X;X;X;X;X;X;X;X;X;X;X;X;X",
";X;X;X;X;X;X;X;X;X;X1X).@ 2 ;.1.1.1.1.1.1.>.1.1.1.1.1.,.{ F ,X1XP Y 1.:.2 $ $.6.1.1.2.] S ,X;X;X;X;X;X;X;X;X;X;X;X,X;X;X;X;X;X;X",
";X;X;X;X;X;X;X;X;X;X1X).q E 0 2.1.1.1.1.1.1.1.1.1.1.6...M {.,X,XP Q 6.9 { *.,.1.1.1.2.' S :X;X;X;X;X;X;X;X;X;X;X;X;X;X;X;X;X;X;X",
";X;X;X;X;X;X;X;X;X;X,X].Z W 6 %.1.1.1.1.1.1.1.1.1.1.6.| b ;X,X,XP 4 { 7 #.4.1.1.1.1.2.' S ;X;X;X;X;X;X;X;X;X;X;X;X;X;X;X;X;X;X;X",
";X;X;X;X;X;X;X;X;X;X;X,XH.r ^ 8 1.3.1.1.1.1.1.1.1.1.1.| c ;X;X<XP     } 3.1.1.1.1.1.2.] S <X;X;X;X;X;X;X;X;X;X;X;X;X;X;X;X;X;X;X",
";X;X;X;X;X;X;X;X;X;X;X>XJ.5 ~ 8 1.1.1.1.1.1.1.1.1.1.6.| n -X<XJ.7.( ( *.6.1.1.1.1.1.1.=.` D.;X;X;X;X;X;X;X;X;X;X;X;X;X;X;X;X;X;X",
";X;X>X;X;X;X;X;X;X;X;X1X/.g T y s.1.1.1.1.1.1.1.1.1.1...Z ;X-Xi.R 5.4.1.1.1.1.1.1.1.1.2.! F ,X;X;X;X;X;X;X;X<X;X;X;X<X;X;X;X;X;X",
";X;X;X;X;X;X;X;X>X;X;X;X;XV.O S L.>.2.2.4.1.1.1.1.1.1.>.h.1XF.f :.1.1.1.1.>.1.1.1.1.1.4.! F <X;X;X;X;X;X;X;X;X;X;X;X;X;X;X;X;X;X",
";X;X;X;X;X;X;X;X;X;X;X;X1X_.< F ^.d.+.( ( =.2.1.1.1.1.y.I.{.e.q.d.1.3.1.1.1.1.1.1.1.1.2.! H <X;X;X;X;X;X;X;X;X;X;X;X;X;X;X;X;X;X",
";X;X;X;X;X;X;X;X;X;X;X;X;X1XZ.F ,XP.7 . O X.1.1.1.>.1.l.>XM.8 P.P.1.3.3.4.3.1.1.1.1.1.2.! F ,X;X;X;X;X;X;X;X;X;X;X;X;X;X;X;X;X;X",
";X;X;X;X;X;X;X;X;X;X;X;X;X1XZ.F ,X.XY.F.F.B 8 $.1.1.1.z.;XM.M I.I.z.K.~.!.W.s.1.1.1.1.@.Z _.>X;X;X;X;X;X;X;X;X;X;X;X;X;X;X;X;X;X",
";X;X;X;X;X;X,X;X;X;X;X;X,X1XG.I +X,X1X1X>Xb 1 t.d.f.u.k.@Xb.L I.I.P.^.<X<X Xd.1.1.1.2.' S ,X:X:X;X;X;X;X;X;X;X;X;X;X;X;X;X;X;X;X",
";X;X;X;X;X;X;X;X;X;X;X;X>X;X;Xb.v.1X,X;X;XOX{.$X$X$XY.V G.@ J I.I.*X-X;X*Xz.1.2.1.1.2.] S ;X;X;X;X;X;X;X;X;X;X;X;X;X;X;X;X;X;X;X",
";X;X;X;X;X;X;X;X;X;X;X;X;X;X;XH.v._.,X,X;X1X,X,X<X<X[.v.i.& F ^.~.;X;X;X*Xl.l.y.1.1.2.' S ;X;X;X;X;X;X<X;X;X;X;X;X;X;X;X;X,X;X;X",
";X;X;X;X;X;X;X;X;X;X;X;X;X;X;X1Xb.v.;X;X;X:X;X;X:X;X;XJ.u ! F >X;X;X;X;X*Xz.^.f.1.1.2.] G :X;X;X;X;X;X;X;X;X;X;X;X;X;X;X;X;X;X;X",
";X;X;X;X;X;X;X;X;X;X;X;X;X;X;X>X[.v.v v v v x x v c x N @.! F >X;X;X;X;X;X.X.Xf.1.1.@.C _.;X;X;X;X;X;X;X;X;X;X;X;X;X;X;X;X;X;X;X",
";X;X;X;X;X;X;X;X;X;X;X;X;X;X;X;X1Xb.# # . O # # #   O 3 1.! F >X;X;X;X;X;X,X Xf.1.>.( H ;X;X;X;X;X;X;X;X;X;X;X;X;X;X;X;X;X:X;X;X",
";X;X;X;X;X;X;X;X;X;X;X;X;X;X;X>X>X@XOX{.x ( Q.OX).e #.:.6.~ J >X;X;X;X;X;X;X$Xf.1.+.a OX;X;X;X;X;X;X;X;X;X;X;X;X;X;X;X;X;X;X;X;X",
";X;X>X;X;X;X;X;X;X;X;X;X;X;X>X;X;X;X,X;Xc } P.#XC._ >.1.=.3 F ,X;X;X;X;X:X<X Xa.;.` m.;X;X;X;X;X;X;X;X;X;X;X;X;X;X;X;X;X;X;X;X;X",
";X;X;X;X;X;X;X;X;X;X;X;X;X;X;X;X;X;X;X;Xc [ s.E.w =.2.1.} . F ,X;X;X;X;X;X<X Xf.@.m @X;X;X;X;X;X;X;X;X;X;X;X;X;X;X;X;X;X;X;X;X;X",
";X;X;X;X;X;X;X;X;X;X;X;X;X;X;X;X;X;X;X;Xc | 5.p.2 =.2.#.C K F >X;X;X;X;X;X*Xc.=.h H.;X;X;X;X;X;X;X;X;X;X;X:X;X;X;X;X;X;X;X;X;X;X",
";X;X;X;X;X;X;X;X;X;X;X;X;X;X;X;X;X;X;X;XI / %. .3 =.>.( I M.J >X;X;X;X;X;X%Xr.} V @X<X;X;X;X;X;X;X;X;X;X;X;X;X;X;X;X;X;X;X;X;X;X",
";X;X;X;X;X;X;X;X;X;X;X;X;X;X;X;X;X;X;X;X+Xl . O #.4.@.z @XM.J >X;X;X;X<X<X@X, : ].;X;X;X;X;X;X;X;X;X;X;X;X;X;X;X;X;X;X;X;X<X;X;X",
";X;X;X;X,X;X;X;X;X;X;X;X;X;X;X;X;X;X;X;X;XC.P I ) T h Z.>XM.J ,X;X;X:XD.b.b.i.b.@X<X;X;X;X;X;X;X;X;X;X;X;X;X;X;X;X;X;X;X;X;X;X;X",
";X;X;X;X;X;X;X;X;X;X;X;X,X;X;X;X;X;X;X;X:X,X1XOX, + j @X1XC.L ;X:X-X@Xb X : ].1X;X;X;X;X;X;X;X;X;X;X;X;X;X;X;X;X;X;X;X;X;X;X;X;X",
";X;X;X;X;X;X;X;X;X;X;X;X;X;X;X;X;X;X;X;X;X:X;X-X).E.).-X>X+Xb.M.1Xm.j M./.(.@X<X;X;X;X;X;X;X;X;X,X;X;X;X;X,X;X;X;X;X;X;X;X;X;X;X",
";X;X;X;X;X;X;X;X;X;X;X;X;X;X;X;X;X;X;X;X;X;X;X;X1X<X<X;X,X1XN.A ).L , T.1X1X,X:X;X;X;X;X;X;X;X;X;X;X;X;X;X;X;X;X;X;X;X;X;X;X;X;X",
";X;X;X;X;X;X;X;X;X;X;X;X;X;X;X;X;X;X;X;X;X;X;X;X:X;X;X;X,X1XN.. X m.-X-X,X,X:X,X;X;X;X;X;X;X;X;X;X;X;X;X;X;X;X;X;X;X;X;X;X;X;X;X",
",X;X;X;X;X;X;X;X;X;X;X;X;X;X;X;X;X;X;X;X:X;X;X;X;X;X;X;X:X<X_.v.b.).<X:X;X;X;X;X;X;X;X;X;X;X;X;X;X;X;X;X;X;X;X;X;X;X;X;X,X;X;X;X",
";X;X;X;X;X;X;X;X;X;X;X;X;X;X;X;X;X;X,X;X;X;X;X;X;X;X;X;X;X:X<X<X<X:X:X,X;X;X;X;X;X;X:X;X;X;X;X;X;X;X;X;X;X;X;X;X;X;X;X;X;X;X;X;X",
";X;X;X;X;X;X;X;X;X;X;X>X;X;X;X;X;X;X;X;X;X;X;X;X;X;X;X;X;X;X;X;X;X;X;X;X;X;X;X;X;X;X;X;X;X;X;X;X;X;X;X;X;X;X;X;X;X;X;X;X;X;X;X;X",
";X;X;X;X;X;X;X;X;X;X;X;X,X;X;X;X;X;X;X;X;X;X;X;X;X;X;X;X;X;X;X;X;X;X;X;X;X;X;X;X;X;X;X;X;X;X;X;X;X;X;X;X;X;X<X;X;X;X;X;X;X;X;X;X",
";X;X;X;X;X;X;X;X;X;X;X;X;X;X;X;X;X;X,X;X;X;X;X;X;X;X;X;X;X;X;X;X;X;X;X;X;X;X;X;X;X;X;X;X;X;X;X;X;X;X;X;X;X;X;X;X;X;X;X;X;X;X;X;X",
";X;X;X;X;X;X;X;X;X;X;X;X;X;X;X;X;X;X;X;X;X;X;X;X;X;X;X;X;X;X;X;X;X;X;X;X;X;X;X;X;X<X;X;X;X;X;X;X;X;X;X;X;X;X;X;X;X;X;X:X;X;X;X;X"
};
