/* XPM */
static char *result[] = {
/* columns rows colors chars-per-pixel */
"64 64 185 2 ",
"   c #497195",
".  c #497094",
"X  c #4B769A",
"o  c #5797BE",
"O  c #599CC3",
"+  c #589BC2",
"@  c #60A3C7",
"#  c #96D3E2",
"$  c #9EDBE7",
"%  c #61A3C7",
"&  c #589CC3",
"*  c #599DC4",
"=  c #4A7599",
"-  c #527C9E",
";  c #94CEDD",
":  c #96D4E3",
">  c #5797BD",
",  c #96D4E2",
"<  c #589BC3",
"1  c #497296",
"2  c #4B759A",
"3  c #4C7A9F",
"4  c #5798BE",
"5  c #5A9DC4",
"6  c #5FA2C6",
"7  c #67A9CA",
"8  c #8FCDDF",
"9  c #8ECDDE",
"0  c #60A2C7",
"q  c #4C7A9E",
"w  c #5693BA",
"e  c #5798BF",
"r  c #5481A3",
"t  c #94CFDE",
"y  c #5B9DC4",
"u  c #64A4C7",
"i  c #6CABCB",
"p  c #90CEDF",
"a  c #65A5C8",
"s  c #66A6C8",
"d  c #4B7599",
"f  c #5693B9",
"g  c #589AC2",
"h  c #5A9DC3",
"j  c #599BC2",
"k  c #4C799E",
"l  c #5697BE",
"z  c #5E9EC2",
"x  c #5696BD",
"c  c #B4E0E7",
"v  c #B5E1E7",
"b  c #579AC2",
"n  c #BCE7EA",
"m  c #9AD6E3",
"M  c #95D3E2",
"N  c #91CFDF",
"B  c #60A2C6",
"V  c #64A5C8",
"C  c #6CABCC",
"Z  c #8FCEDF",
"A  c #62A4C8",
"S  c #BBE7EA",
"D  c #5B9EC4",
"F  c #66A6C9",
"G  c #B5E0E7",
"H  c #6BABCB",
"J  c #5EA1C6",
"K  c #66A8CA",
"L  c #9BD6E3",
"P  c #BBE6EA",
"I  c #8ECDDF",
"U  c #5FA1C6",
"Y  c #5593B9",
"T  c #B4E0E6",
"R  c #C0E9EB",
"E  c #65A6C8",
"W  c #B6E2E7",
"Q  c #70ADCC",
"!  c #71AECC",
"~  c #4E7B9F",
"^  c #63A1C3",
"/  c #9BD6E4",
"(  c #8ECCDE",
")  c #5E9DC2",
"_  c #63A4C7",
"`  c #5696BE",
"'  c #62A0C3",
"]  c #B4DFE6",
"[  c #4D7B9F",
"{  c #B6E1E7",
"}  c #71AECD",
"|  c #579BC2",
" . c #B3DFE6",
".. c #63A0C3",
"X. c #62A4C7",
"o. c #67A9CB",
"O. c #67A7C9",
"+. c #4A759A",
"@. c #5A9CC3",
"#. c #5596BD",
"$. c #6CACCC",
"%. c #8DC8DA",
"&. c #99D2DF",
"*. c #91CEDF",
"=. c #91CFE0",
"-. c #8FCDDE",
";. c #5899BF",
":. c #5380A2",
">. c #5581A3",
",. c #64A1C4",
"<. c #66A5C8",
"1. c #4B799D",
"2. c #70AECC",
"3. c #487094",
"4. c #5592B9",
"5. c #537D9E",
"6. c #5582A3",
"7. c #64A2C4",
"8. c #93CEDD",
"9. c #99D1DF",
"0. c #95D3E3",
"q. c #5492B9",
"w. c #67A8CA",
"e. c #5F9FC2",
"r. c #BCE7EB",
"t. c #BAE2E6",
"y. c #5984A4",
"u. c #4E7CA0",
"i. c #B6E2E8",
"p. c #B2DBE1",
"a. c #567E9E",
"s. c #629FC2",
"d. c #4C769A",
"f. c #599DC3",
"g. c #64A5C7",
"h. c #5D9DC1",
"j. c #90CEE0",
"k. c #8CC8D9",
"l. c #99D1DE",
"z. c #4D7A9F",
"x. c #B9E1E5",
"c. c #577F9F",
"v. c #C0EAEC",
"b. c #BFE5E7",
"n. c #5A84A4",
"m. c #5898BF",
"M. c #C0E9EC",
"N. c #BEE5E7",
"B. c #4B799E",
"V. c #B2DBE2",
"C. c #5883A3",
"Z. c #94CFDD",
"A. c #8DC9DA",
"S. c #5EA1C5",
"D. c #65A2C3",
"F. c #63A3C6",
"G. c #5999BF",
"H. c #5F9FC3",
"J. c #5492B8",
"K. c #4C779A",
"L. c #61A4C7",
"P. c #497499",
"I. c #477094",
"U. c #B3DBE1",
"Y. c #B6E1E8",
"T. c #B2DCE2",
"R. c #648CA8",
"E. c #B4DDE3",
"W. c #71ADCC",
"Q. c #64A4C8",
"!. c #B4E1E7",
"~. c #5FA2C7",
"^. c #6BAACA",
"/. c #B3DCE2",
"(. c #8FCADB",
"). c #5F89A7",
"_. c #5983A3",
"`. c #64A1C3",
"'. c #8EC9DA",
"]. c #66A8C9",
"[. c #5A86A6",
"{. c #5481A2",
"}. c #C8F1F0",
"|. c #A4DEE8",
" X c white",
/* pixels */
"            . X o O + @ # $ $ # % & O o X .         . X o * O o = - ; : % > X . . X o O + @ , : % & * o X .     . X o O < < < < ",
"      1 2 X X 3 4 5 6 7 8 # # 9 0 O O 4 3 X X X X X X q w e O 4 q r t : % o 3 X X 3 4 y u i p 8 0 + e w q X X X X 3 4 y a s % % ",
"    . d f o o 4 g 6 8 p 7 @ % 0 h O O j 4 o o o o o 4 w k q 4 O l z # , @ g o x > o + a c v i 6 5 e q k w o x x x o b u c n m M ",
"X X X 3 e * O y u i N 8 B + & O O O O O O O O O e o 4 w k q 4 y V C p Z 7 % s s A @ O s n S a b e w k q e D a F F s % i v S m M ",
"o o o e j O < a G v H J h O O O O O O O O O O 4 3 2 2 k w e b u c v H K Z L P P L I U @ L L A o q k Y o b u T R R P L p C E % % ",
"O O e e j O < a c W Q u 5 j 4 o o 4 j O O O O 4 3 2 2 3 e D u ! W c u U I L P P L p H H p I @ o q ~ ^ F % i v R R P / ( ) l + O ",
"O 4 3 3 4 O O 5 _ Q W c V ` 3 2 2 3 4 O O O O O e o o 4 g u c W ! u y 5 @ A s s % i v v i 6 5 j ` ' ] n L p H a s s A z [ q e * ",
"O o 2 2 o O O 5 _ Q { W } ' ~ 2 2 3 4 O O j 4 o o e O 5 6 i v c u b 4 o > o + < + a n n a + O y V } { S L Z K U O < O o q k w o ",
"O o 2 2 > O | u c W Q Q v  ...x x o j O * e 3 2 2 3 l 0 8 N i u y 4 3 2 2 3 e * & X.L L % + < a c { ! a % 7 p 8 B + < + o Y k 2 ",
"O 4 3 [ z A a ! W c _ a R R s 5 a a y j e w k 2 2 [ z o.p 8 6 + O 4 3 2 2 k w e + 0 I Z 7 B O s n S a | + B 8 p 7 % s s O.^ ~ +.",
"O + l ) ( / S { ! u @.s R R a _ G G V l q k w o > z ( Z 7 B h O O j 4 o o w k q 4 5 B 7 Z I 6 % m m % & O 5 B 7 Z / P R R  .' #.",
"% % E C p L n c u | < a T v H H v v $.) [ q e * O A / L % + O O O O O O * e q q 4 O + % L L % % m m % + 4 4 + U %.&.P R R v ! s ",
"M m S v i % s a y O O 5 u H p *.H H =.-.) l j O + a n S a | O O O O O O O O 4 4 j O < s P P a a n S E l q q e ;.:.>.,.O.<.! v R ",
"M m n c u b o o j O O 5 u H *.8 U U 8 =.$.V 5 h 6 i v { ! u y O O O O j 4 4 O O O O < s R R <.u c v C ) [ q e e k 1.Y o b u c R ",
"% A s a y 4 q q 4 O + u c v i 6 h h 6 i v c u J 8 N H Q W c u | O O * e q q 4 O O & | <.R R s h V $.=.-.z l j j e w k q e D a s ",
"> > x o O 4 q q 4 5 6 i v c u + O O + u c W Q H N 8 J u c W ! u y j e w k q 4 5 0 X.a 2.v T a + l ) -.p o.0 5 O * e q k w e + < ",
"X X 2 3 4 O 4 4 + B 8 N i u y O O O O 5 _ Q { v i 6 h 5 u ! { c a o q k w e g 6 I L S { ! u D e q [ z o.p 8 B + < + e w k q 4 O ",
"    = 3 4 O O 5 B 7 p 8 6 g 4 4 j O O 5 _ Q W c u + O O | a S n s o q q e D u i p L n c u b e w k q l 0 8 p 7 % s a D e q q 4 O ",
"3.= 4.o + O & 0 I Z 7 B 5 4 3 3 4 O | u c W } V y O O O & X.L L % + 4 4 b u c v H @ s a 5 o q k Y o j h U K Z L n c u g 4 4 j O ",
"5.6.7.F X.0 O % L L % + O o 2 2 o y u ! W T ' x o 4 j O O 0 I Z 7 B 5 y u ! W v H U O O @ z [ [ z @ h 5 u H p L S v i 6 5 O O O ",
"8.9.P P L I U a n n a + O o 2 2 x V c W } ..~ 2 2 3 4 O & O 6 7 p 8 U u c W Q H N 8 6 6 8 -.z z -.8 J u c v H 0 a i N 8 6 + & & ",
"0./ P P L Z K H v v i 6 5 4 3 [ ) $.v T ..q.k 2 2 3 4 5 0 0 O 6 8 p K H v c u J 8 p w.w.p 8 0 0 8 N H Q W { Q _ O 6 8 N i a % % ",
"% A s s % 7 p *.H H p I 0 + o z ( p i ..~ k w o o 4 + B 8 8 6 O 6 7 p *.i u y 5 B 7 Z Z 7 B h h 6 i v v Q Q W c u & J H v n m M ",
"> > x o + B 8 8 U @ L L X.& O A / L % x 2 2 o * O 5 B 7 p p 7 6 O 6 8 8 6 g 4 4 + % L L % + O O + s R R a _ c W ! <.a Q { S m M ",
"X X X 3 e 5 @ @ O s n S a | < s P P s x 2 2 o * O 0 I Z K K p 8 0 O @ @ 5 e q q l E S n s < O O < s R R s @.u ! v R R v Q V % % ",
"    . d f o > o + a c { ! u @.s R R F l 3 k w e + X.L L % 0 , , % + o > o w k [ ) C v c a < O O < s R R s < | u T R R v H J O < ",
"        d X X 3 e D u ! W c _ a R R s + e w k 3 o s P P a 0 M M % o 3 2 2 k Y z ( p i V y O O O + s R R s < O y a s s i p 8 0 & ",
"X X X X X d   d f e b u c W Q Q v T a < * o 2 2 x F R R <.% L L X.o 3 2 2 3 o A / L e.l j O O h 6 i v T a + 4 4 + < + @ , , % < ",
"> > > > l 4.=   = 3 4 y u ! W { Q _ h < O o 2 2 x s R R <.a n S a b 4 o o 4 b a r.t.y.k 4 O < B 8 N i u D e q q 4 O + @ , , @ + ",
"% % % A F ^ u.X 2 3 4 O | u c v H 0 s a y 4 3 [ ) i v T u u c v i 6 5 O O y u ! i.p.a.= o 5 B 7 p 8 6 g e w k q 4 5 B 7 Z p i s ",
"# # M L n ] ..x x o j O O y u i p L n c u g o z ( p i u y y u i p I 0 & | u c W } s.d.+.x 0 8 p 7 B 5 4 q k w e + B 8 p K H v R ",
"# # M L S v i % s a y O O O + 6 I L S v i 6 f.X./ L % b 4 4 b % L L % h u ! W c V ` 3 [ z o.p 8 B < O 4 q q e 5 B 7 p 8 U u c R ",
"% % % % a i p L n c u + O O O h 6 % a H *.8 6 a n S E l 3 3 o s n S g._ c W } V y j l z -.p w.U O < O j o o + B 8 p 7 B h 5 a s ",
"& & & & + 6 I L S v i 6 h O O h 6 @ B K p 8 6 u c v C h.d.2 x a c { Q Q W T ' ` j 5 0 o.p p K % s a 5 5 a s % 7 p 8 B < O O < < ",
"O O O O O h 0 X.a i p I 0 & + 6 8 , , p o.0 5 y u i j.k.- +.o y u ! v v } ..~ q o @ I Z K w.Z L n c _ _ c n L Z 7 B 5 O O O O O ",
"O O O O O O O & + % L L % h u i p , : ( z x o 4 b % / l.5.+.o O | <.R R ,.q.k q o A L L % U I L S { Q Q { S L I B + 4 4 j O O O ",
"O O O O O O O O < s n S g._ c v i @ % z z.= = q l s S x.c.= o O | <.v.b.n.1.w e b a S n s O 0 % V Q { W ! a X.0 5 e q q 4 O O O ",
"o o o 4 j O O O < a c { Q Q W c u + O m.:.5.5.:.4 s M.N.n.B.4 y u ! v V.C.k e 5 6 i v c a < & O J H v c u | & + e w k q 4 O 4 o ",
"X X 2 3 e * O O O 5 u Q { W } V y O < U %.Z.Z.A.S.a R R D.l b u c W Q F.G.4 + 0 I p i u y O O 0 8 p i u y O * e q k w e O 4 3 X ",
"X X 2 k w o o 4 j h J H v T ' ` j y u i j.: : p K H v c a 5 u ! W v H J 5 O & X.L L % + O O & % , , @ + O j e w k q e * O o X . ",
"o o o w k 2 2 3 o @ I p $...~ 3 ` V c v i @ @ 7 Z p i u O u c W Q H N 8 B < < s P P s < O O O % M M % & O 4 3 k w e j O O o X   ",
"O O * e 3 2 2 3 o A / L H.J.= K.s.} W c u + + % L L % O 6 i v c u J 8 p 7 B O s R R s + 4 4 + L.L L % & O o 2 2 o * O O O o X   ",
"O O O j 4 o x l b a r.t.y.P.I.a.U.i.} V y O & s n S V J 8 =.$.V y 5 B 7 p 8 U a R R O.o q q o s P P s < O o 2 2 o * O O O o X . ",
"O O O O O y a F <.2.Y.T.C.X a.R.E.T ' x o o x ..] { Q H =.-.) x o 4 + B 8 p K H v ] ^ Y k q l F R R s < O 4 3 k w e j O O 4 3 X ",
"& & & & | u T R R v ! u 4 s.U.E.W.' ~ 2 X X 2 ~ ' } { v C ) [ 2 2 3 4 5 U K p *.$...~ k w e b s R R s + O j e w k q e * O j o > ",
"% % % % a ! v R R T u O Q.} i.!.V ` 3 2 X X 2 3 ` a S n E l 3 2 2 3 4 y u H *.8 ~.l q q e 5 6 i v v i 6 h O * e q k w e j 5 @ L.",
"# # M L S { Q a s a h a c { ! u y j e o o o o 4 + % L L % b 4 o o 4 b u c v i 6 5 O 4 4 g 6 8 =.H H =.8 B < O j e w k q l ~.8 : ",
"# # M L S { Q _ @.< < s n S a | O j e o o e O 5 B 7 Z p i u y O O y u ! W c u g 4 4 O y u i =.-.h.h.-.p 7 B h O * e q ~ ..$.p , ",
"% % % % a ! { c a < O A / L % + O 4 3 2 2 3 o @ I Z K H v c u | | u c W ! u y 4 3 3 o a c v C ) [ [ z o.p 8 B < O j l ..T v i @ ",
"> o + & | a S n s + o z ( p i u y 4 3 2 2 3 o A L L @ u c W ! <.<.! W c u | O o 2 2 x s n S E l q k 4.z -.p 7 B h h ~.$.v c u + ",
"= q o O + % L L A o 3 [ ) $.v c u g 4 o > o b a S n s @.u Q v v.R v Q u 5 O O o X X > A L L % + e w k [ z 7 p 8 6 6 I p i V y O ",
"- r e.X.a i p I @ > 2 2 x V c v i 6 5 5 @ A a ! { c a O J ^./.b.R v H J h O O o X X > @ I Z 7 B 5 o 2 2 x % , , @ % / L e.l j O ",
"; t M L n v H U f.x 2 2 o y u i N 8 U U I L S { ! u h 0 8 (.)._.`.i N 8 6 + O o 2 2 o 5 B 7 p 8 0 x 2 2 > L.: : 0 a r.t._.B.4 O ",
": : M L n v H @ s ..~ 3 4 O + 6 8 N H H p L n c u | < % : t :.B.l ~.8 N i u y 4 3 3 4 O < B 8 p o.z [ 3 o B %.'.].H v T.C.B.4 O ",
"% % % % a i p L n ] ' ` j O < O U H v v H @ s a y O & % : # z l j 5 6 i v c u b 4 4 j O O h 6 w.p -.z o O m.:.[.'.j.i u G.4 O O ",
"& & & & + 6 I L S { } V 5 5 a s @ H v v H S.4 x o 4 + 0 8 p C V y O + u c W ! u y O O O O h 6 w.p 8 @ O O 4 B.{.t : @ + O O 4 o ",
"O O O O O h 0 X.a ! W c u u c n L p H H p %.:.= 2 3 e 5 6 i v c a < O y u ! W c u + O O + 6 8 p 7 B 5 O O O o e.M M % & O 4 3 X ",
"O O O O O O O & | u c v H H v S L I U @ / &.6.= 2 k w e b a S n s + 4 4 b u c v i 6 h 5 u i N 8 B + 4 o o 4 + A L L % & O o X . ",
"O O O O O O O O O y u i *.*.H a % 6 O s n P ^ x o w k q l % L L A o q q e D u i N 8 J u c v H J f.o 3 2 2 3 l E S n s < O o X . ",
"o o o o o o o 4 j O + 6 8 p K B @ 6 O a c { } V D e q ~ ..i p I @ o q k w e g 6 8 N H Q W { Q V X.z [ 2 2 [ ) C v c a < O 4 3 X ",
"X X X X X X 2 3 4 O O h B 7 p , , 8 6 @.u ! { c a + l ..T v i 6 5 j m.w k q 4 5 6 i v { Q Q { S / ( ) x x z -.=.i u y O O O 4 o ",
"X X X X X X 2 3 4 O O O < B 8 , , p 7 6 & a S n s O ~.$.v c u + O j m.w k q 4 O + a n S g._ c n L p C E % 7 p 8 6 g 4 o o 4 O O ",
"o o o o o o o 4 j O O O O h 0 % @ 7 p 8 6 % m m % 6 8 p i u y O O 4 3 k w e j O & % m m % h a s % i c P m 8 7 6 5 4 3 X X 3 4 O ",
"O O O O O O O O O O O O O O & < + @ , , @ @ M M @ @ : , @ + O O O o 2 2 o * O O & % M M % < < < | s R }.|.M @ + O o X . . X o O "
};
